<svg width="21" height="21" viewBox="0 0 21 21" fill="none" xmlns="http://www.w3.org/2000/svg">
<path d="M7.875 18.375H13.125M10.5 2.625C7.6005 2.625 5.25 4.97551 5.25 7.875C5.25 8.93769 5.56574 9.92663 6.10852 10.7531C6.94319 12.0241 7.36016 12.6592 7.41433 12.7541C7.89625 13.5984 7.80751 13.3006 7.86816 14.2709C7.87498 14.3799 7.875 14.545 7.875 14.875C7.875 15.3582 8.26675 15.75 8.75 15.75L12.25 15.75C12.7332 15.75 13.125 15.3582 13.125 14.875C13.125 14.545 13.125 14.3799 13.1318 14.2709C13.1925 13.3006 13.1032 13.5984 13.5851 12.7541C13.6393 12.6592 14.057 12.0241 14.8917 10.7531C15.4344 9.92663 15.7502 8.93769 15.7502 7.875C15.7502 4.97551 13.3995 2.625 10.5 2.625Z" stroke="white" stroke-width="2" stroke-linecap="round" stroke-linejoin="round"/>
</svg>
