<svg width="14" height="17" viewBox="0 0 14 17" fill="none" xmlns="http://www.w3.org/2000/svg">
<mask id="path-1-inside-1_166_295" fill="white">
<path d="M0.41491 1.15856C0.468667 0.834222 0.635803 0.539608 0.886446 0.327368C1.13709 0.115128 1.45491 -0.000905452 1.78309 5.32111e-06C2.12418 5.32111e-06 2.43642 0.122405 2.67909 0.32513C2.94232 0.114557 3.2692 -9.28661e-05 3.60606 5.32111e-06C3.95649 5.32111e-06 4.27891 0.121555 4.53303 0.32513C4.78419 0.114488 5.10148 -0.000643131 5.42903 5.32111e-06C5.75722 -0.000905452 6.07503 0.115128 6.32568 0.327368C6.57632 0.539608 6.74345 0.834222 6.79721 1.15856C6.95333 2.11565 7.21212 3.8794 7.21212 5.1C7.21255 5.67407 7.07624 6.23995 6.81453 6.75064C6.55281 7.26133 6.17323 7.7021 5.70733 8.03633C5.43582 8.23183 5.30303 8.4677 5.30303 8.66958C5.30303 8.68573 5.30345 8.69678 5.3043 8.70953C5.34164 9.17533 5.72727 14.0114 5.72727 14.875C5.72727 15.4386 5.50379 15.9791 5.10598 16.3776C4.70818 16.7761 4.16864 17 3.60606 17C3.04348 17 2.50394 16.7761 2.10614 16.3776C1.70833 15.9791 1.48485 15.4386 1.48485 14.875C1.48485 14.0114 1.87049 9.17533 1.90739 8.70953C1.90859 8.69625 1.90915 8.68291 1.90909 8.66958C1.90909 8.4677 1.77673 8.23183 1.50479 8.03633C1.03889 7.7021 0.659313 7.26133 0.397597 6.75064C0.13588 6.23995 -0.000426144 5.67407 1.00082e-06 5.1C1.00082e-06 3.8794 0.258789 2.11565 0.41491 1.15856ZM5.09091 5.41875C5.09091 5.55965 5.03504 5.69478 4.93559 5.7944C4.83614 5.89403 4.70125 5.95 4.56061 5.95C4.41996 5.95 4.28508 5.89403 4.18563 5.7944C4.08617 5.69478 4.0303 5.55965 4.0303 5.41875V1.4875C4.0303 1.37479 3.98561 1.26669 3.90605 1.18698C3.82649 1.10728 3.71858 1.06251 3.60606 1.06251C3.49355 1.06251 3.38564 1.10728 3.30608 1.18698C3.22652 1.26669 3.18182 1.37479 3.18182 1.4875V5.41875C3.18182 5.55965 3.12595 5.69478 3.0265 5.7944C2.92705 5.89403 2.79216 5.95 2.65152 5.95C2.51087 5.95 2.37599 5.89403 2.27654 5.7944C2.17708 5.69478 2.12121 5.55965 2.12121 5.41875V1.40123C2.12121 1.31139 2.08559 1.22524 2.02218 1.16172C1.95877 1.09819 1.87277 1.06251 1.78309 1.06251C1.61849 1.06251 1.48612 1.17853 1.46152 1.33026C1.30455 2.29373 1.06061 3.97758 1.06061 5.1C1.06019 5.50536 1.15641 5.90497 1.34125 6.26556C1.5261 6.62615 1.79423 6.93731 2.12333 7.17315C2.55606 7.48425 2.9697 8.00318 2.9697 8.66915C2.9697 8.7108 2.96843 8.7499 2.96503 8.79453C2.9243 9.299 2.54546 14.0675 2.54546 14.875C2.54546 15.1568 2.6572 15.427 2.8561 15.6263C3.055 15.8256 3.32477 15.9375 3.60606 15.9375C3.88735 15.9375 4.15712 15.8256 4.35602 15.6263C4.55492 15.427 4.66667 15.1568 4.66667 14.875C4.66667 14.0675 4.28782 9.299 4.24752 8.79453C4.24429 8.75296 4.24259 8.71128 4.24242 8.66958C4.24242 8.00318 4.65606 7.48383 5.08879 7.17315C5.41789 6.93731 5.68602 6.62615 5.87087 6.26556C6.05571 5.90497 6.15193 5.50536 6.15152 5.1C6.15152 3.97758 5.90758 2.29373 5.75061 1.33026C5.73751 1.25463 5.69795 1.18614 5.63902 1.13708C5.58009 1.08801 5.50565 1.06158 5.42903 1.06251C5.33936 1.06251 5.25335 1.09819 5.18994 1.16172C5.12653 1.22524 5.09091 1.31139 5.09091 1.40123V5.41875ZM12.5152 1.07611V7.96875C12.5152 8.2195 12.5949 9.384 12.6827 10.6611L12.6887 10.7478C12.8075 12.4759 12.9394 14.4037 12.9394 14.875C12.9394 15.1568 12.8277 15.427 12.6287 15.6263C12.4298 15.8256 12.1601 15.9375 11.8788 15.9375C11.5975 15.9375 11.3277 15.8256 11.1288 15.6263C10.9299 15.427 10.8182 15.1568 10.8182 14.875C10.8182 14.4577 10.9221 12.756 11.029 11.1265C11.0917 10.173 11.1564 9.21954 11.2229 8.26625L11.2412 8.00615C11.2463 7.93341 11.2364 7.8604 11.2121 7.79165C11.1879 7.7229 11.1497 7.6599 11.1001 7.60655C11.0505 7.55321 10.9904 7.51067 10.9237 7.48159C10.8569 7.4525 10.7849 7.4375 10.7121 7.4375H9.43939C9.35501 7.4375 9.27408 7.40392 9.21441 7.34414C9.15473 7.28437 9.12121 7.20329 9.12121 7.11875V4.78125C9.12119 3.85014 9.46984 2.9529 10.0983 2.26687C10.7267 1.58083 11.5891 1.15591 12.5152 1.07611ZM10.1436 8.5L10.1169 8.8876C10.077 9.46645 10.0236 10.2476 9.97097 11.0568C9.86576 12.6608 9.75758 14.4122 9.75758 14.875C9.75758 15.4386 9.98106 15.9791 10.3789 16.3776C10.7767 16.7761 11.3162 17 11.8788 17C12.4414 17 12.9809 16.7761 13.3787 16.3776C13.7765 15.9791 14 15.4386 14 14.875C14 14.3612 13.8664 12.4126 13.7505 10.7304L13.7467 10.6752C13.6542 9.32705 13.5758 8.177 13.5758 7.96875V0.531255C13.5758 0.238005 13.3382 5.32111e-06 13.0455 5.32111e-06H12.8333C10.1975 5.32111e-06 8.06061 2.14073 8.06061 4.78125V7.11875C8.06061 7.48508 8.20587 7.83641 8.46444 8.09544C8.72302 8.35448 9.07372 8.5 9.43939 8.5H10.1436Z"/>
</mask>
<path d="M0.41491 1.15856C0.468667 0.834222 0.635803 0.539608 0.886446 0.327368C1.13709 0.115128 1.45491 -0.000905452 1.78309 5.32111e-06C2.12418 5.32111e-06 2.43642 0.122405 2.67909 0.32513C2.94232 0.114557 3.2692 -9.28661e-05 3.60606 5.32111e-06C3.95649 5.32111e-06 4.27891 0.121555 4.53303 0.32513C4.78419 0.114488 5.10148 -0.000643131 5.42903 5.32111e-06C5.75722 -0.000905452 6.07503 0.115128 6.32568 0.327368C6.57632 0.539608 6.74345 0.834222 6.79721 1.15856C6.95333 2.11565 7.21212 3.8794 7.21212 5.1C7.21255 5.67407 7.07624 6.23995 6.81453 6.75064C6.55281 7.26133 6.17323 7.7021 5.70733 8.03633C5.43582 8.23183 5.30303 8.4677 5.30303 8.66958C5.30303 8.68573 5.30345 8.69678 5.3043 8.70953C5.34164 9.17533 5.72727 14.0114 5.72727 14.875C5.72727 15.4386 5.50379 15.9791 5.10598 16.3776C4.70818 16.7761 4.16864 17 3.60606 17C3.04348 17 2.50394 16.7761 2.10614 16.3776C1.70833 15.9791 1.48485 15.4386 1.48485 14.875C1.48485 14.0114 1.87049 9.17533 1.90739 8.70953C1.90859 8.69625 1.90915 8.68291 1.90909 8.66958C1.90909 8.4677 1.77673 8.23183 1.50479 8.03633C1.03889 7.7021 0.659313 7.26133 0.397597 6.75064C0.13588 6.23995 -0.000426144 5.67407 1.00082e-06 5.1C1.00082e-06 3.8794 0.258789 2.11565 0.41491 1.15856ZM5.09091 5.41875C5.09091 5.55965 5.03504 5.69478 4.93559 5.7944C4.83614 5.89403 4.70125 5.95 4.56061 5.95C4.41996 5.95 4.28508 5.89403 4.18563 5.7944C4.08617 5.69478 4.0303 5.55965 4.0303 5.41875V1.4875C4.0303 1.37479 3.98561 1.26669 3.90605 1.18698C3.82649 1.10728 3.71858 1.06251 3.60606 1.06251C3.49355 1.06251 3.38564 1.10728 3.30608 1.18698C3.22652 1.26669 3.18182 1.37479 3.18182 1.4875V5.41875C3.18182 5.55965 3.12595 5.69478 3.0265 5.7944C2.92705 5.89403 2.79216 5.95 2.65152 5.95C2.51087 5.95 2.37599 5.89403 2.27654 5.7944C2.17708 5.69478 2.12121 5.55965 2.12121 5.41875V1.40123C2.12121 1.31139 2.08559 1.22524 2.02218 1.16172C1.95877 1.09819 1.87277 1.06251 1.78309 1.06251C1.61849 1.06251 1.48612 1.17853 1.46152 1.33026C1.30455 2.29373 1.06061 3.97758 1.06061 5.1C1.06019 5.50536 1.15641 5.90497 1.34125 6.26556C1.5261 6.62615 1.79423 6.93731 2.12333 7.17315C2.55606 7.48425 2.9697 8.00318 2.9697 8.66915C2.9697 8.7108 2.96843 8.7499 2.96503 8.79453C2.9243 9.299 2.54546 14.0675 2.54546 14.875C2.54546 15.1568 2.6572 15.427 2.8561 15.6263C3.055 15.8256 3.32477 15.9375 3.60606 15.9375C3.88735 15.9375 4.15712 15.8256 4.35602 15.6263C4.55492 15.427 4.66667 15.1568 4.66667 14.875C4.66667 14.0675 4.28782 9.299 4.24752 8.79453C4.24429 8.75296 4.24259 8.71128 4.24242 8.66958C4.24242 8.00318 4.65606 7.48383 5.08879 7.17315C5.41789 6.93731 5.68602 6.62615 5.87087 6.26556C6.05571 5.90497 6.15193 5.50536 6.15152 5.1C6.15152 3.97758 5.90758 2.29373 5.75061 1.33026C5.73751 1.25463 5.69795 1.18614 5.63902 1.13708C5.58009 1.08801 5.50565 1.06158 5.42903 1.06251C5.33936 1.06251 5.25335 1.09819 5.18994 1.16172C5.12653 1.22524 5.09091 1.31139 5.09091 1.40123V5.41875ZM12.5152 1.07611V7.96875C12.5152 8.2195 12.5949 9.384 12.6827 10.6611L12.6887 10.7478C12.8075 12.4759 12.9394 14.4037 12.9394 14.875C12.9394 15.1568 12.8277 15.427 12.6287 15.6263C12.4298 15.8256 12.1601 15.9375 11.8788 15.9375C11.5975 15.9375 11.3277 15.8256 11.1288 15.6263C10.9299 15.427 10.8182 15.1568 10.8182 14.875C10.8182 14.4577 10.9221 12.756 11.029 11.1265C11.0917 10.173 11.1564 9.21954 11.2229 8.26625L11.2412 8.00615C11.2463 7.93341 11.2364 7.8604 11.2121 7.79165C11.1879 7.7229 11.1497 7.6599 11.1001 7.60655C11.0505 7.55321 10.9904 7.51067 10.9237 7.48159C10.8569 7.4525 10.7849 7.4375 10.7121 7.4375H9.43939C9.35501 7.4375 9.27408 7.40392 9.21441 7.34414C9.15473 7.28437 9.12121 7.20329 9.12121 7.11875V4.78125C9.12119 3.85014 9.46984 2.9529 10.0983 2.26687C10.7267 1.58083 11.5891 1.15591 12.5152 1.07611ZM10.1436 8.5L10.1169 8.8876C10.077 9.46645 10.0236 10.2476 9.97097 11.0568C9.86576 12.6608 9.75758 14.4122 9.75758 14.875C9.75758 15.4386 9.98106 15.9791 10.3789 16.3776C10.7767 16.7761 11.3162 17 11.8788 17C12.4414 17 12.9809 16.7761 13.3787 16.3776C13.7765 15.9791 14 15.4386 14 14.875C14 14.3612 13.8664 12.4126 13.7505 10.7304L13.7467 10.6752C13.6542 9.32705 13.5758 8.177 13.5758 7.96875V0.531255C13.5758 0.238005 13.3382 5.32111e-06 13.0455 5.32111e-06H12.8333C10.1975 5.32111e-06 8.06061 2.14073 8.06061 4.78125V7.11875C8.06061 7.48508 8.20587 7.83641 8.46444 8.09544C8.72302 8.35448 9.07372 8.5 9.43939 8.5H10.1436Z" fill="white" stroke="white" stroke-width="14" mask="url(#path-1-inside-1_166_295)"/>
</svg>
