<svg width="20" height="17" viewBox="0 0 20 17" fill="none" xmlns="http://www.w3.org/2000/svg">
<path d="M1 7H2.04548M2.04548 7H17.9545M2.04548 7C2.05661 6.94853 2.06977 6.89751 2.08496 6.84711C2.12122 6.72683 2.17242 6.61115 2.27539 6.37948L3.82165 2.90039C4.12737 2.21253 4.28048 1.8684 4.5221 1.61621C4.73568 1.39329 4.99764 1.223 5.28809 1.11837C5.61667 1 5.99336 1 6.74609 1H13.2536C14.0063 1 14.3833 1 14.7119 1.11837C15.0024 1.223 15.264 1.39329 15.4775 1.61621C15.719 1.86823 15.8718 2.21208 16.1771 2.899L17.7296 6.39213C17.8289 6.6154 17.8794 6.72903 17.915 6.84711C17.9301 6.89751 17.9433 6.94853 17.9545 7M2.04548 7C2.03302 7.05764 2.0231 7.11583 2.01572 7.17432C2 7.29896 2 7.42567 2 7.6792V13M17.9545 7H19M17.9545 7C17.967 7.05764 17.977 7.11583 17.9844 7.17432C18 7.2982 18 7.42418 18 7.67464V13.0001M18 13.0001L14 13.0001M18 13.0001V13.9999C18 15.1045 17.1046 16 16 16C14.8954 16 14 15.1046 14 14V13.0001M14 13.0001L6 13M6 13H2M6 13V14C6 15.1046 5.10457 16 4 16C2.89543 16 2 15.1046 2 14V13" stroke="white" stroke-width="2" stroke-linecap="round" stroke-linejoin="round"/>
</svg>
