<svg width="18" height="18" viewBox="0 0 18 18" fill="none" xmlns="http://www.w3.org/2000/svg">
<path d="M14.0199 15.4165L12.4364 8.20275L15.5155 5.12371C16.8351 3.80412 17.2749 2.04467 16.8351 1.16495C15.9553 0.725086 14.1959 1.16495 12.8763 2.48454L9.79725 5.56357L2.58351 3.98007C2.14364 3.8921 1.79175 4.06804 1.61581 4.41993L1.35189 4.85979C1.17595 5.29966 1.26392 5.73952 1.61581 6.00344L6.27835 9.08247L4.5189 11.7216H1.87973L1 12.6014L3.63918 14.3608L5.39863 17L6.27835 16.1203V13.4811L8.91753 11.7216L11.9966 16.3842C12.2605 16.7361 12.7003 16.8241 13.1402 16.6481L13.5801 16.4722C13.932 16.2082 14.1079 15.8564 14.0199 15.4165Z" stroke="white" stroke-width="1.5" stroke-linecap="round" stroke-linejoin="round"/>
</svg>
