<svg width="21" height="21" viewBox="0 0 21 21" fill="none" xmlns="http://www.w3.org/2000/svg">
<path d="M12.25 8.75V14.875M8.75 8.75V14.875M5.25 5.25V15.575C5.25 16.5551 5.25 17.0448 5.44074 17.4191C5.60852 17.7484 5.87604 18.0167 6.20532 18.1844C6.5793 18.375 7.06912 18.375 8.0473 18.375H12.9527C13.9309 18.375 14.42 18.375 14.794 18.1844C15.1233 18.0167 15.3917 17.7484 15.5594 17.4191C15.75 17.0452 15.75 16.5559 15.75 15.5777V5.25M5.25 5.25H7M5.25 5.25H3.5M7 5.25H14M7 5.25C7 4.4346 7 4.0271 7.13321 3.70551C7.31082 3.27671 7.65128 2.93583 8.08008 2.75821C8.40168 2.625 8.8096 2.625 9.625 2.625H11.375C12.1904 2.625 12.5981 2.625 12.9197 2.75821C13.3485 2.93583 13.6891 3.27671 13.8667 3.70551C13.9999 4.0271 14 4.4346 14 5.25M14 5.25H15.75M15.75 5.25H17.5" stroke="white" stroke-width="2" stroke-linecap="round" stroke-linejoin="round"/>
</svg>
