<svg width="28" height="28" viewBox="0 0 28 28" fill="none" xmlns="http://www.w3.org/2000/svg">
<g clip-path="url(#clip0_310_381)">
<path d="M27.1884 14.1017C27.1884 20.4907 21.2686 25.6701 13.9673 25.6701C12.6579 25.6718 11.3539 25.5018 10.0886 25.1644C9.1235 25.6535 6.90733 26.5922 3.179 27.2037C2.84848 27.2566 2.59728 26.9128 2.72784 26.6054C3.31287 25.2239 3.84171 23.3828 4.00036 21.7038C1.97589 19.671 0.746338 17.0103 0.746338 14.1017C0.746338 7.71262 6.66604 2.53329 13.9673 2.53329C21.2686 2.53329 27.1884 7.71262 27.1884 14.1017ZM12.6353 12.0623C12.5264 11.8998 12.4007 11.7491 12.2602 11.6128C12.0393 11.3854 11.776 11.2035 11.4851 11.0774L11.4719 11.0708C11.0805 10.889 10.654 10.7954 10.2225 10.7964C8.63928 10.7964 7.35684 12.0293 7.35684 13.5514C7.35684 15.0718 8.63928 16.3046 10.2225 16.3046C10.7893 16.3046 11.3165 16.1476 11.7611 15.8749C11.5347 16.5178 11.1166 17.2037 10.4225 17.8911C10.3571 17.955 10.3055 18.0315 10.2708 18.116C10.2361 18.2005 10.2191 18.2913 10.2208 18.3826C10.2225 18.4739 10.2429 18.564 10.2807 18.6471C10.3185 18.7303 10.3729 18.8049 10.4406 18.8662C10.7265 19.1306 11.1794 19.1224 11.4554 18.8497C13.66 16.6533 13.7195 14.2917 13.0105 12.725C12.9063 12.4935 12.7807 12.2721 12.6353 12.064V12.0623ZM18.9252 15.8749C18.7005 16.5178 18.2807 17.2037 17.5866 17.8911C17.5213 17.9551 17.4698 18.0317 17.4353 18.1163C17.4007 18.2009 17.3839 18.2916 17.3857 18.383C17.3876 18.4743 17.4081 18.5643 17.4461 18.6474C17.484 18.7305 17.5386 18.805 17.6064 18.8662C17.8907 19.1306 18.3435 19.1224 18.6195 18.8497C20.8241 16.6533 20.8836 14.2917 20.1763 12.725C20.0716 12.4934 19.9454 12.2721 19.7995 12.064C19.6906 11.9008 19.5649 11.7496 19.4243 11.6128C19.2035 11.3853 18.9401 11.2034 18.6492 11.0774L18.636 11.0708C18.2451 10.8893 17.8192 10.7956 17.3883 10.7964C15.8067 10.7964 14.5226 12.0293 14.5226 13.5514C14.5226 15.0718 15.8067 16.3046 17.3883 16.3046C17.9551 16.3046 18.4823 16.1476 18.9269 15.8749H18.9252Z" fill="#FF6D34"/>
</g>
<defs>
<clipPath id="clip0_310_381">
<rect width="26.442" height="26.442" fill="white" transform="translate(0.746338 0.880493)"/>
</clipPath>
</defs>
</svg>
