<svg width="28" height="28" viewBox="0 0 28 28" fill="none" xmlns="http://www.w3.org/2000/svg">
<g clip-path="url(#clip0_66_729)">
<path d="M27.1882 14.1017C27.1882 20.4907 21.2685 25.6701 13.9672 25.6701C12.6577 25.6718 11.3537 25.5018 10.0884 25.1644C9.12331 25.6535 6.90714 26.5922 3.17882 27.2037C2.84829 27.2566 2.59709 26.9128 2.72765 26.6054C3.31268 25.2239 3.84152 23.3828 4.00017 21.7038C1.97571 19.671 0.746152 17.0103 0.746152 14.1017C0.746152 7.71262 6.66586 2.53329 13.9672 2.53329C21.2685 2.53329 27.1882 7.71262 27.1882 14.1017ZM12.6351 12.0623C12.5262 11.8998 12.4005 11.7491 12.26 11.6128C12.0391 11.3854 11.7758 11.2035 11.4849 11.0774L11.4717 11.0708C11.0803 10.889 10.6538 10.7954 10.2223 10.7964C8.63909 10.7964 7.35666 12.0293 7.35666 13.5514C7.35666 15.0718 8.63909 16.3046 10.2223 16.3046C10.7892 16.3046 11.3163 16.1476 11.7609 15.8749C11.5345 16.5178 11.1164 17.2037 10.4223 17.8911C10.3569 17.955 10.3053 18.0315 10.2706 18.116C10.2359 18.2005 10.2189 18.2913 10.2206 18.3826C10.2223 18.4739 10.2427 18.564 10.2805 18.6471C10.3183 18.7303 10.3727 18.8049 10.4405 18.8662C10.7264 19.1306 11.1792 19.1224 11.4552 18.8497C13.6598 16.6533 13.7193 14.2917 13.0103 12.725C12.9062 12.4935 12.7806 12.2721 12.6351 12.064V12.0623ZM18.925 15.8749C18.7003 16.5178 18.2805 17.2037 17.5864 17.8911C17.5211 17.9551 17.4696 18.0317 17.4351 18.1163C17.4005 18.2009 17.3837 18.2916 17.3855 18.383C17.3874 18.4743 17.4079 18.5643 17.4459 18.6474C17.4839 18.7305 17.5384 18.805 17.6062 18.8662C17.8905 19.1306 18.3433 19.1224 18.6193 18.8497C20.8239 16.6533 20.8834 14.2917 20.1761 12.725C20.0714 12.4934 19.9452 12.2721 19.7993 12.064C19.6905 11.9008 19.5647 11.7496 19.4241 11.6128C19.2033 11.3853 18.94 11.2034 18.6491 11.0774L18.6358 11.0708C18.245 10.8893 17.8191 10.7956 17.3881 10.7964C15.8065 10.7964 14.5224 12.0293 14.5224 13.5514C14.5224 15.0718 15.8065 16.3046 17.3881 16.3046C17.9549 16.3046 18.4821 16.1476 18.9267 15.8749H18.925Z" fill="#212227"/>
</g>
<defs>
<clipPath id="clip0_66_729">
<rect width="26.442" height="26.442" fill="white" transform="translate(0.746246 0.880493)"/>
</clipPath>
</defs>
</svg>
