<svg viewBox="0 0 64 64" aria-hidden="true"  xmlns="http://www.w3.org/2000/svg" xmlns:xlink="http://www.w3.org/1999/xlink">
  <g fill="none" stroke="currentColor" stroke-width="2" stroke-linecap="round" stroke-linejoin="round">
    <!-- Speech bubble -->
    <path d="M10 16h26c4 0 7 3 7 7v9c0 4-3 7-7 7H22l-8 7v-7H10c-4 0-7-3-7-7v-9c0-4 3-7 7-7z"/>
    <line x1="15" y1="24" x2="29" y2="24"/>
    <line x1="15" y1="29" x2="24" y2="29"/>

    <!-- Lightbulb (idea / advice) -->
    <circle cx="46" cy="20" r="7"/>
    <path d="M42 28c0 3 2 5 4 7 2-2 4-4 4-7"/>
    <rect x="43" y="35" width="6" height="5" rx="1"/>
    <line x1="42" y1="14" x2="40" y2="12"/>
    <line x1="50" y1="14" x2="52" y2="12"/>
    <line x1="46" y1="11" x2="46" y2="8"/>
  </g>
</svg>
