<svg width="89" height="36" viewBox="0 0 89 36" fill="none" xmlns="http://www.w3.org/2000/svg">
<path d="M27.2889 16.4613C27.2889 15.3496 27.5073 14.3636 27.944 13.5034C28.394 12.6431 28.9962 11.9814 29.7505 11.5182C30.5181 11.055 31.3718 10.8234 32.3114 10.8234C33.132 10.8234 33.8466 10.9888 34.4554 11.3197C35.0775 11.6506 35.5738 12.0674 35.9443 12.5704V11.0021H38.7434V22H35.9443V20.392C35.587 20.9081 35.0907 21.3383 34.4554 21.6824C33.8334 22.0132 33.1121 22.1787 32.2916 22.1787C31.3652 22.1787 30.5181 21.9404 29.7505 21.464C28.9962 20.9876 28.394 20.3192 27.944 19.459C27.5073 18.5855 27.2889 17.5863 27.2889 16.4613ZM35.9443 16.501C35.9443 15.8261 35.812 15.2504 35.5473 14.7739C35.2826 14.2842 34.9253 13.9137 34.4753 13.6622C34.0253 13.3975 33.5422 13.2652 33.0261 13.2652C32.5099 13.2652 32.0335 13.3909 31.5968 13.6424C31.16 13.8938 30.8027 14.2644 30.5248 14.7541C30.2601 15.2305 30.1277 15.7996 30.1277 16.4613C30.1277 17.1231 30.2601 17.7054 30.5248 18.2083C30.8027 18.698 31.16 19.0752 31.5968 19.3398C32.0467 19.6045 32.5232 19.7369 33.0261 19.7369C33.5422 19.7369 34.0253 19.6112 34.4753 19.3597C34.9253 19.095 35.2826 18.7244 35.5473 18.248C35.812 17.7583 35.9443 17.176 35.9443 16.501ZM44.2371 12.7093C44.5945 12.127 45.0577 11.6704 45.6268 11.3395C46.2091 11.0087 46.8708 10.8432 47.612 10.8432V13.7615H46.8774C46.004 13.7615 45.3422 13.9666 44.8922 14.3769C44.4555 14.7872 44.2371 15.5018 44.2371 16.5209V22H41.4579V11.0021H44.2371V12.7093ZM52.2632 12.6101C52.6205 12.0807 53.1102 11.6506 53.7322 11.3197C54.3675 10.9888 55.0888 10.8234 55.8961 10.8234C56.8357 10.8234 57.6827 11.055 58.4371 11.5182C59.2047 11.9814 59.8069 12.6431 60.2436 13.5034C60.6936 14.3504 60.9186 15.3364 60.9186 16.4613C60.9186 17.5863 60.6936 18.5855 60.2436 19.459C59.8069 20.3192 59.2047 20.9876 58.4371 21.464C57.6827 21.9404 56.8357 22.1787 55.8961 22.1787C55.0755 22.1787 54.3543 22.0199 53.7322 21.7022C53.1234 21.3714 52.6338 20.9479 52.2632 20.4317V22H49.4839V7.30961H52.2632V12.6101ZM58.0798 16.4613C58.0798 15.7996 57.9408 15.2305 57.6629 14.7541C57.3982 14.2644 57.0409 13.8938 56.5909 13.6424C56.1542 13.3909 55.6777 13.2652 55.1616 13.2652C54.6586 13.2652 54.1822 13.3975 53.7322 13.6622C53.2955 13.9137 52.9382 14.2842 52.6602 14.7739C52.3955 15.2636 52.2632 15.8393 52.2632 16.501C52.2632 17.1628 52.3955 17.7385 52.6602 18.2281C52.9382 18.7178 53.2955 19.095 53.7322 19.3597C54.1822 19.6112 54.6586 19.7369 55.1616 19.7369C55.6777 19.7369 56.1542 19.6045 56.5909 19.3398C57.0409 19.0752 57.3982 18.698 57.6629 18.2083C57.9408 17.7186 58.0798 17.1363 58.0798 16.4613ZM67.8218 22.1787C66.763 22.1787 65.8101 21.9471 64.9631 21.4839C64.1161 21.0074 63.4478 20.3391 62.9581 19.4788C62.4816 18.6186 62.2434 17.626 62.2434 16.501C62.2434 15.3761 62.4882 14.3835 62.9779 13.5232C63.4808 12.663 64.1624 12.0013 65.0227 11.5381C65.8829 11.0616 66.8424 10.8234 67.9012 10.8234C68.96 10.8234 69.9195 11.0616 70.7797 11.5381C71.64 12.0013 72.3149 12.663 72.8046 13.5232C73.3075 14.3835 73.559 15.3761 73.559 16.501C73.559 17.626 73.3009 18.6186 72.7848 19.4788C72.2818 20.3391 71.5936 21.0074 70.7202 21.4839C69.8599 21.9471 68.8938 22.1787 67.8218 22.1787ZM67.8218 19.7567C68.3247 19.7567 68.7945 19.6376 69.2313 19.3994C69.6812 19.1479 70.0386 18.7774 70.3033 18.2877C70.568 17.798 70.7003 17.2025 70.7003 16.501C70.7003 15.4555 70.4224 14.6548 69.8665 14.099C69.3239 13.5299 68.6556 13.2453 67.8615 13.2453C67.0674 13.2453 66.3991 13.5299 65.8564 14.099C65.3271 14.6548 65.0624 15.4555 65.0624 16.501C65.0624 17.5466 65.3204 18.3539 65.8366 18.923C66.366 19.4788 67.0277 19.7567 67.8218 19.7567ZM81.6922 10.8432C83.0024 10.8432 84.0612 11.2601 84.8685 12.0939C85.6758 12.9145 86.0795 14.0659 86.0795 15.5481V22H83.3002V15.9253C83.3002 15.0518 83.0818 14.3835 82.6451 13.9203C82.2083 13.4438 81.6128 13.2056 80.8584 13.2056C80.0908 13.2056 79.482 13.4438 79.032 13.9203C78.5953 14.3835 78.3769 15.0518 78.3769 15.9253V22H75.5977V11.0021H78.3769V12.3718C78.7475 11.8954 79.2173 11.5248 79.7864 11.2601C80.3687 10.9822 81.004 10.8432 81.6922 10.8432Z" fill="#0A2924"/>
<path d="M71.5862 26.9885H69.9189C69.8885 26.7728 69.8263 26.5812 69.7324 26.4137C69.6385 26.2437 69.518 26.099 69.3708 25.9798C69.2236 25.8605 69.0536 25.7691 68.8607 25.7057C68.6704 25.6422 68.4636 25.6105 68.2403 25.6105C67.8368 25.6105 67.4853 25.7108 67.1859 25.9112C66.8864 26.1092 66.6542 26.3985 66.4893 26.7791C66.3243 27.1572 66.2419 27.6166 66.2419 28.1571C66.2419 28.7128 66.3243 29.1798 66.4893 29.5579C66.6568 29.936 66.8902 30.2215 67.1897 30.4143C67.4891 30.6072 67.8355 30.7036 68.2288 30.7036C68.4496 30.7036 68.6539 30.6744 68.8417 30.6161C69.032 30.5577 69.2008 30.4727 69.348 30.361C69.4951 30.2468 69.6169 30.1085 69.7134 29.9461C69.8123 29.7837 69.8809 29.5985 69.9189 29.3904L71.5862 29.398C71.543 29.7558 71.4352 30.1009 71.2626 30.4334C71.0926 30.7633 70.8629 31.0589 70.5736 31.3203C70.2869 31.5791 69.9443 31.7847 69.5459 31.9369C69.15 32.0867 68.7021 32.1615 68.2022 32.1615C67.5069 32.1615 66.8851 32.0042 66.337 31.6895C65.7914 31.3748 65.36 30.9193 65.0428 30.323C64.7281 29.7266 64.5708 29.0047 64.5708 28.1571C64.5708 27.307 64.7307 26.5837 65.0504 25.9874C65.3702 25.391 65.8041 24.9368 66.3522 24.6246C66.9004 24.31 67.517 24.1526 68.2022 24.1526C68.6539 24.1526 69.0726 24.2161 69.4583 24.343C69.8466 24.4698 70.1905 24.6551 70.4899 24.8987C70.7894 25.1398 71.033 25.4354 71.2208 25.7856C71.4111 26.1358 71.5329 26.5368 71.5862 26.9885ZM77.5833 24.2592H79.2315V29.3219C79.2315 29.8903 79.0958 30.3877 78.8242 30.814C78.5552 31.2403 78.1784 31.5728 77.6937 31.8113C77.209 32.0473 76.6444 32.1653 75.9998 32.1653C75.3527 32.1653 74.7868 32.0473 74.3021 31.8113C73.8174 31.5728 73.4406 31.2403 73.1716 30.814C72.9026 30.3877 72.7681 29.8903 72.7681 29.3219V24.2592H74.4163V29.181C74.4163 29.4779 74.481 29.7418 74.6104 29.9728C74.7424 30.2037 74.9277 30.3851 75.1662 30.5171C75.4047 30.6491 75.6826 30.715 75.9998 30.715C76.3196 30.715 76.5974 30.6491 76.8334 30.5171C77.072 30.3851 77.256 30.2037 77.3854 29.9728C77.5173 29.7418 77.5833 29.4779 77.5833 29.181V24.2592ZM80.2907 25.6181V24.2592H86.6932V25.6181H84.3066V32.0549H82.6774V25.6181H80.2907Z" fill="url(#paint0_linear_310_484)"/>
<path d="M13.3002 4.6119C12.6585 4.54539 12.0239 4.53509 11.4015 4.57728L11.6533 7.5429C12.068 7.5206 12.4899 7.53062 12.9163 7.57482C16.7191 7.96891 19.6256 10.9569 20.0606 14.6L23.1733 14.4498C22.634 9.3579 18.5973 5.16084 13.3002 4.6119ZM10.8546 7.62545L10.6028 4.66018C5.68198 5.35412 1.67711 9.32118 1.14176 14.487C1.10009 14.8891 1.08049 15.2883 1.08237 15.6833L4.06105 15.5392C4.06204 15.2722 4.07624 15.0031 4.10435 14.7319C4.48847 11.0253 7.33707 8.17034 10.8546 7.62545ZM11.2614 23.5442C7.39709 23.1437 4.45835 20.0643 4.09832 16.3413L1.11436 16.4855C1.51415 21.7216 5.60866 26.085 11.0169 26.6455C11.3745 26.6825 11.7302 26.7022 12.0827 26.7047L11.8176 23.5825C11.6333 23.5764 11.4479 23.5635 11.2614 23.5442Z" fill="#0A2924"/>
<path d="M20.7145 17.6737L22.9496 25.4863L14.83 23.4344L19.3167 22.0629L20.7145 17.6737Z" fill="url(#paint1_linear_310_484)"/>
<path d="M25.4777 19.021L28.9151 31.1926L17.0659 28.2239L23.4657 26.0836L25.4777 19.021Z" fill="url(#paint2_linear_310_484)"/>
<mask id="mask0_310_484" style="mask-type:alpha" maskUnits="userSpaceOnUse" x="3" y="6" width="19" height="18">
<circle cx="12.726" cy="15.0869" r="8.8313" transform="rotate(5.91651 12.726 15.0869)" fill="white"/>
</mask>
<g mask="url(#mask0_310_484)">
<path d="M8.74427 9.58881C7.85402 10.0612 7.06553 10.7232 6.46547 11.5533C6.4191 11.6174 6.43351 11.707 6.49766 11.7534C6.56181 11.7998 6.65141 11.7854 6.69779 11.7212C7.27245 10.9262 8.02979 10.2913 8.88588 9.83827C10.9332 8.75494 13.4533 8.76086 15.4582 9.92562C16.2336 10.3761 16.9281 10.9736 17.5822 11.6661C17.6366 11.7236 17.7273 11.7262 17.7849 11.6719C17.8424 11.6175 17.845 11.5268 17.7906 11.4693C17.1276 10.7672 16.4164 10.1533 15.6171 9.68642C13.5226 8.46299 10.8851 8.4529 8.74427 9.58881Z" fill="#27AF99"/>
<path d="M6.25635 12.4086C6.29902 12.342 6.27957 12.2533 6.21289 12.2106C6.14622 12.168 6.05758 12.1874 6.01491 12.2541C5.42936 13.1689 5.0013 14.8959 5.21581 16.4961C5.2159 16.4967 5.21599 16.4973 5.21608 16.4979C5.42698 17.9281 6.06638 19.3887 7.15241 20.3875C7.15345 20.3885 7.15449 20.3894 7.15556 20.3903C7.3598 20.5674 7.58063 20.7288 7.80172 20.8905C8.26738 21.2309 8.73419 21.5722 9.04957 22.0617C9.09244 22.1283 9.18114 22.1474 9.24768 22.1046C9.31423 22.0617 9.33342 21.973 9.29054 21.9065C8.96087 21.3948 8.47948 21.0393 7.998 20.6838C7.77532 20.5194 7.55263 20.355 7.34491 20.1751C6.31915 19.2309 5.70354 17.8373 5.49981 16.4571C5.29376 14.9181 5.71076 13.261 6.25635 12.4086Z" fill="#27AF99"/>
<path d="M7.86916 11.3893C9.13391 10.1045 10.9628 9.44782 12.802 9.68633C12.8805 9.69651 12.9359 9.7684 12.9257 9.8469C12.9156 9.9254 12.8437 9.98079 12.7652 9.97061C11.0162 9.74379 9.27575 10.3687 8.07283 11.591C8.07241 11.5915 8.07197 11.5919 8.07154 11.5923C6.53173 13.1175 6.00592 15.565 6.82713 17.5938C6.85684 17.6671 6.82143 17.7507 6.74805 17.7804C6.67468 17.8101 6.59112 17.7747 6.56142 17.7013C5.69629 15.564 6.24896 12.9946 7.86916 11.3893Z" fill="#27AF99"/>
<path d="M13.5454 9.86005C13.4686 9.84069 13.3907 9.88721 13.3714 9.96396C13.352 10.0407 13.3985 10.1186 13.4753 10.138C14.6402 10.4319 15.5718 11.0538 16.5143 11.9385C16.572 11.9926 16.6627 11.9898 16.7169 11.932C16.771 11.8743 16.7682 11.7836 16.7105 11.7294C15.7473 10.8255 14.774 10.17 13.5454 9.86005Z" fill="#27AF99"/>
<path d="M17.046 12.246C17.1015 12.1895 17.1922 12.1887 17.2487 12.2442C17.8667 12.8508 18.5208 13.5776 18.9329 14.1789C18.9776 14.2442 18.9609 14.3334 18.8956 14.3782C18.8303 14.4229 18.7411 14.4063 18.6964 14.341C18.2993 13.7614 17.6598 13.0493 17.0479 12.4487C16.9914 12.3933 16.9906 12.3025 17.046 12.246Z" fill="#27AF99"/>
<path d="M7.1303 18.2547C7.09268 18.1851 7.00572 18.1591 6.93607 18.1968C6.86643 18.2344 6.84047 18.3214 6.8781 18.391C7.09117 18.7854 7.34981 19.1547 7.64772 19.4894C7.95479 19.8342 8.32017 20.1119 8.68569 20.3896C8.9847 20.6168 9.2838 20.8441 9.55115 21.1083C9.90234 21.4554 10.1553 21.8918 10.3361 22.361C10.3646 22.4348 10.4476 22.4716 10.5214 22.4431C10.5953 22.4147 10.6321 22.3317 10.6036 22.2578C10.4124 21.7619 10.1402 21.2874 9.75265 20.9044C9.48713 20.642 9.18947 20.4163 8.89192 20.1907C8.52884 19.9155 8.16594 19.6403 7.86182 19.2987C7.57874 18.9808 7.33287 18.6297 7.1303 18.2547Z" fill="#27AF99"/>
<path d="M7.79772 13.3717C7.86877 13.4066 7.89807 13.4925 7.86316 13.5636C7.15709 15.0008 7.22757 16.7482 8.11992 18.0813C8.49273 18.6382 9.00849 19.0582 9.52411 19.4781C9.81448 19.7146 10.1048 19.951 10.3695 20.2118C10.9436 20.7774 11.4661 21.4957 11.6143 22.4435C11.6265 22.5217 11.573 22.595 11.4948 22.6072C11.4166 22.6195 11.3433 22.566 11.3311 22.4878C11.1961 21.6242 10.7193 20.9589 10.1684 20.416C9.89974 20.1514 9.60682 19.9115 9.31408 19.6718C8.78885 19.2417 8.26422 18.8121 7.8817 18.2407C6.92891 16.8173 6.85753 14.9604 7.60588 13.4372C7.64078 13.3661 7.72667 13.3368 7.79772 13.3717Z" fill="#27AF99"/>
<path d="M12.0852 10.6145C10.4794 10.5818 8.95965 11.4327 8.03778 12.7169C7.99162 12.7812 8.00632 12.8708 8.07063 12.9169C8.13494 12.9631 8.22449 12.9484 8.27065 12.8841C9.1436 11.668 10.5779 10.8705 12.0793 10.9011C13.3448 10.927 14.5854 11.5046 15.6082 12.4322C15.6669 12.4854 15.7575 12.481 15.8107 12.4223C15.8639 12.3637 15.8594 12.2731 15.8008 12.2199C14.7388 11.2567 13.4344 10.6421 12.0852 10.6145Z" fill="#27AF99"/>
<path d="M16.2349 12.7475C16.288 12.6889 16.3786 12.6844 16.4373 12.7376C17.4246 13.6322 18.338 14.736 19.1111 15.9032C19.1548 15.9692 19.1367 16.0581 19.0707 16.1018C19.0047 16.1456 18.9158 16.1275 18.8721 16.0615C18.1098 14.9105 17.2114 13.8259 16.2448 12.95C16.1862 12.8968 16.1817 12.8062 16.2349 12.7475Z" fill="#27AF99"/>
<path d="M9.41012 12.6305C7.77677 14.0989 7.62117 16.5951 9.06955 18.2062C9.22426 18.3783 9.39112 18.5332 9.56764 18.6709C9.63004 18.7197 9.72011 18.7086 9.76882 18.6462C9.81753 18.5838 9.80643 18.4937 9.74403 18.445C9.5806 18.3174 9.42607 18.174 9.28272 18.0145C7.94313 16.5245 8.08286 14.2092 9.60177 12.8437C10.2882 12.2266 11.1377 11.9102 11.9866 11.8863C12.0657 11.884 12.128 11.8181 12.1258 11.7389C12.1236 11.6598 12.0576 11.5975 11.9785 11.5997C11.0637 11.6255 10.1486 11.9666 9.41012 12.6305Z" fill="#27AF99"/>
<path d="M12.5746 11.7824C12.5804 11.7035 12.6492 11.6442 12.7281 11.6501C13.6395 11.7177 14.4832 12.3533 15.1645 12.9108C15.9319 13.5387 16.5882 14.2342 16.8846 14.5639C16.9375 14.6228 16.9327 14.7134 16.8738 14.7663C16.815 14.8192 16.7244 14.8144 16.6714 14.7555C16.3799 14.4312 15.7345 13.7475 14.983 13.1326C14.3505 12.6151 13.5554 11.9989 12.7069 11.936C12.628 11.9301 12.5687 11.8614 12.5746 11.7824Z" fill="#27AF99"/>
<path d="M17.4063 15.1987C17.3583 15.1358 17.2683 15.1238 17.2054 15.1718C17.1425 15.2199 17.1305 15.3099 17.1786 15.3728C17.7165 16.0764 18.2377 16.7937 18.6436 17.5243C18.682 17.5935 18.7693 17.6185 18.8385 17.58C18.9077 17.5416 18.9326 17.4543 18.8942 17.3851C18.4776 16.6353 17.9457 15.9042 17.4063 15.1987Z" fill="#27AF99"/>
<path d="M10.0919 18.909C10.1394 18.8457 10.2293 18.8329 10.2926 18.8805C11.5468 19.8223 12.3258 21.0019 12.5477 22.4492C12.5597 22.5274 12.506 22.6006 12.4278 22.6126C12.3495 22.6246 12.2764 22.5709 12.2644 22.4926C12.0556 21.1309 11.3247 20.014 10.1204 19.1097C10.0571 19.0622 10.0444 18.9723 10.0919 18.909Z" fill="#27AF99"/>
<path d="M10.0336 13.324C8.97334 14.2772 8.67106 16.033 9.49222 17.16C9.85171 17.6533 10.3169 18.0394 10.7823 18.4257C11.1886 18.763 11.5951 19.1004 11.9315 19.5094C12.7014 20.4456 13.1055 21.4264 13.2019 22.4467C13.2093 22.5256 13.2793 22.5834 13.3581 22.576C13.4369 22.5685 13.4947 22.4986 13.4873 22.4198C13.385 21.3376 12.9559 20.3037 12.1529 19.3273C11.818 18.9202 11.4125 18.5841 11.0072 18.2484C10.5437 17.8644 10.0806 17.4807 9.7239 16.9911C9.00252 16.0012 9.2567 14.408 10.2252 13.5372C10.677 13.1311 12.0657 12.3249 13.5263 13.2018C14.4417 13.7514 15.4286 14.7214 16.2693 15.77C17.1099 16.8185 17.7923 17.9306 18.1064 18.7548C18.1346 18.8288 18.2174 18.8659 18.2914 18.8377C18.3654 18.8095 18.4025 18.7267 18.3743 18.6527C18.0457 17.7905 17.3439 16.6521 16.493 15.5907C15.6422 14.5295 14.6304 13.5303 13.6739 12.9561C12.0525 11.9827 10.5233 12.8838 10.0336 13.324Z" fill="#27AF99"/>
<path d="M14.054 21.0953C14.1322 21.0831 14.2055 21.1367 14.2177 21.2149C14.2427 21.3756 14.2799 21.5339 14.317 21.6923C14.3542 21.8506 14.3914 22.0089 14.4164 22.1697C14.4286 22.2479 14.375 22.3212 14.2968 22.3334C14.2186 22.3455 14.1453 22.292 14.1332 22.2138C14.1082 22.053 14.071 21.8947 14.0338 21.7364C13.9966 21.5781 13.9594 21.4197 13.9344 21.2589C13.9222 21.1807 13.9758 21.1075 14.054 21.0953Z" fill="#27AF99"/>
<path d="M10.3007 15.0846C10.3202 15.0079 10.2738 14.9299 10.1971 14.9104C10.1204 14.8909 10.0424 14.9373 10.0229 15.014C9.85458 15.6758 9.94464 16.2968 10.4559 16.8655C10.7603 17.2041 11.0692 17.427 11.3859 17.6555C11.86 17.9976 12.3035 18.3654 12.6846 18.8118C13.1473 19.354 13.479 19.9314 13.6944 20.5718C13.7196 20.6468 13.8009 20.6872 13.8759 20.662C13.9509 20.6367 13.9913 20.5555 13.9661 20.4804C13.7383 19.8033 13.3877 19.1941 12.9026 18.6257C12.5066 18.1618 12.0463 17.7788 11.5538 17.4231C11.2358 17.1934 10.9519 16.9884 10.6691 16.6738C10.231 16.1865 10.1524 15.6679 10.3007 15.0846Z" fill="#27AF99"/>
<path d="M10.38 14.3361C10.7412 13.8483 11.3174 13.5318 11.9226 13.5004C13.0038 13.4444 13.9174 14.2932 14.6577 14.9811L14.6954 15.0161C15.65 15.9026 16.3928 16.9294 17.0379 18.0512C17.0774 18.1199 17.0537 18.2075 16.9851 18.2469C16.9165 18.2864 16.8289 18.2628 16.7894 18.1941C16.1539 17.0892 15.4279 16.0876 14.5004 15.2262C14.4697 15.1976 14.4386 15.1687 14.4071 15.1394L14.4067 15.1389C13.7387 14.5164 12.902 13.7367 11.9375 13.7867C11.42 13.8136 10.922 14.0859 10.6104 14.5067C10.5633 14.5703 10.4735 14.5837 10.4099 14.5366C10.3463 14.4895 10.3329 14.3997 10.38 14.3361Z" fill="#27AF99"/>
<path d="M17.3641 18.717C17.3273 18.6469 17.2407 18.6199 17.1706 18.6567C17.1005 18.6934 17.0734 18.7801 17.1102 18.8502C17.2733 19.1612 17.3794 19.4789 17.4426 19.8025C17.4578 19.8801 17.5331 19.9308 17.6108 19.9156C17.6884 19.9005 17.7391 19.8252 17.7239 19.7475C17.6558 19.3988 17.541 19.0545 17.3641 18.717Z" fill="#27AF99"/>
<path d="M15.4522 17.6388C15.5169 17.5932 15.6064 17.6086 15.652 17.6733C16.3161 18.6145 16.7709 19.5775 16.9978 20.5634C17.0156 20.6405 16.9675 20.7175 16.8903 20.7352C16.8132 20.753 16.7362 20.7048 16.7185 20.6277C16.5013 19.6842 16.0644 18.7549 15.4178 17.8386C15.3721 17.7739 15.3876 17.6845 15.4522 17.6388Z" fill="#27AF99"/>
<path d="M12.7623 14.6909C12.3334 14.3625 11.723 14.3651 11.3116 14.735C10.7545 15.2358 10.8685 16.1488 11.4759 16.5474C12.538 17.2601 13.3754 18.1145 13.9872 19.1124L13.9876 19.1131C14.5417 20.0048 14.9004 20.9326 15.0685 21.8409C15.0829 21.9188 15.1577 21.9702 15.2355 21.9558C15.3134 21.9414 15.3648 21.8666 15.3504 21.7888C15.1754 20.8433 14.803 19.8822 14.2313 18.9622C13.5959 17.9258 12.7282 17.0423 11.635 16.3089L11.6337 16.3081C11.179 16.0101 11.0839 15.3251 11.5032 14.9482C11.8058 14.6761 12.2615 14.669 12.5872 14.9179C13.5514 15.6783 14.3825 16.4402 14.9709 17.2104C15.0189 17.2734 15.1089 17.2854 15.1718 17.2373C15.2347 17.1893 15.2467 17.0993 15.1987 17.0364C14.5888 16.2381 13.7359 15.4587 12.7639 14.6922C12.7634 14.6917 12.7628 14.6913 12.7623 14.6909Z" fill="#27AF99"/>
<path d="M15.7703 20.3342C15.8468 20.3141 15.9252 20.3598 15.9454 20.4363L16.1571 21.2399C16.1773 21.3164 16.1316 21.3948 16.055 21.415C15.9785 21.4351 15.9001 21.3894 15.8799 21.3129L15.6682 20.5093C15.648 20.4328 15.6937 20.3544 15.7703 20.3342Z" fill="#27AF99"/>
<path d="M12.1098 15.4634C12.0448 15.4182 11.9555 15.4342 11.9103 15.4992C11.8651 15.5642 11.8811 15.6535 11.9461 15.6987C13.6811 16.9056 14.8396 18.2936 15.4307 19.8317C15.4591 19.9056 15.5421 19.9425 15.6159 19.9141C15.6898 19.8857 15.7267 19.8028 15.6983 19.7289C15.082 18.1251 13.88 16.6948 12.1098 15.4634Z" fill="#27AF99"/>
</g>
<defs>
<linearGradient id="paint0_linear_310_484" x1="64.0303" y1="22.6943" x2="81.6583" y2="41.1433" gradientUnits="userSpaceOnUse">
<stop stop-color="#60E86E"/>
<stop offset="1" stop-color="#21AA9E"/>
</linearGradient>
<linearGradient id="paint1_linear_310_484" x1="15.4449" y1="17.5005" x2="23.994" y2="24.1419" gradientUnits="userSpaceOnUse">
<stop stop-color="#60E86E"/>
<stop offset="1" stop-color="#21AA9E"/>
</linearGradient>
<linearGradient id="paint2_linear_310_484" x1="18.0393" y1="18.8313" x2="31.0162" y2="28.3187" gradientUnits="userSpaceOnUse">
<stop stop-color="#60E86E"/>
<stop offset="1" stop-color="#21AA9E"/>
</linearGradient>
</defs>
</svg>
