<svg width="124" height="48" viewBox="0 0 124 48" fill="none" xmlns="http://www.w3.org/2000/svg">
<path d="M38.3568 23.2149C38.3568 21.6523 38.6638 20.2665 39.2777 19.0573C39.9101 17.8482 40.7565 16.9181 41.8169 16.267C42.8958 15.6159 44.0957 15.2903 45.4164 15.2903C46.5698 15.2903 47.5743 15.5229 48.43 15.9879C49.3043 16.453 50.0019 17.039 50.5228 17.7459V15.5415H54.4571V31H50.5228V28.7398C50.0205 29.4653 49.3229 30.0699 48.43 30.5535C47.5557 31.0186 46.5419 31.2511 45.3885 31.2511C44.0864 31.2511 42.8958 30.9163 41.8169 30.2466C40.7565 29.5769 39.9101 28.6375 39.2777 27.4284C38.6638 26.2006 38.3568 24.7961 38.3568 23.2149ZM50.5228 23.2707C50.5228 22.322 50.3367 21.5128 49.9647 20.8431C49.5926 20.1549 49.0904 19.634 48.4579 19.2805C47.8254 18.9085 47.1464 18.7225 46.421 18.7225C45.6955 18.7225 45.0258 18.8992 44.4119 19.2526C43.798 19.6061 43.2958 20.127 42.9051 20.8152C42.5331 21.4849 42.347 22.2848 42.347 23.2149C42.347 24.145 42.5331 24.9636 42.9051 25.6704C43.2958 26.3587 43.798 26.8889 44.4119 27.2609C45.0444 27.633 45.7141 27.819 46.421 27.819C47.1464 27.819 47.8254 27.6423 48.4579 27.2888C49.0904 26.9168 49.5926 26.3959 49.9647 25.7262C50.3367 25.038 50.5228 24.2195 50.5228 23.2707ZM62.179 17.9412C62.6813 17.1227 63.3323 16.4809 64.1322 16.0158C64.9507 15.5508 65.8809 15.3183 66.9226 15.3183V19.4201H65.8902C64.6624 19.4201 63.7323 19.7084 63.0998 20.2851C62.4859 20.8617 62.179 21.8663 62.179 23.2986V31H58.2725V15.5415H62.179V17.9412ZM73.4603 17.8017C73.9625 17.0576 74.6508 16.453 75.5251 15.9879C76.418 15.5229 77.4319 15.2903 78.5666 15.2903C79.8874 15.2903 81.0779 15.6159 82.1383 16.267C83.2172 16.9181 84.0636 17.8482 84.6775 19.0573C85.31 20.2479 85.6262 21.6337 85.6262 23.2149C85.6262 24.7961 85.31 26.2006 84.6775 27.4284C84.0636 28.6375 83.2172 29.5769 82.1383 30.2466C81.0779 30.9163 79.8874 31.2511 78.5666 31.2511C77.4133 31.2511 76.3994 31.0279 75.5251 30.5814C74.6694 30.1164 73.9811 29.5211 73.4603 28.7956V31H69.5538V10.3514H73.4603V17.8017ZM81.636 23.2149C81.636 22.2848 81.4407 21.4849 81.05 20.8152C80.678 20.127 80.1757 19.6061 79.5432 19.2526C78.9294 18.8992 78.2597 18.7225 77.5342 18.7225C76.8273 18.7225 76.1576 18.9085 75.5251 19.2805C74.9113 19.634 74.409 20.1549 74.0183 20.8431C73.6463 21.5314 73.4603 22.3406 73.4603 23.2707C73.4603 24.2009 73.6463 25.0101 74.0183 25.6983C74.409 26.3866 74.9113 26.9168 75.5251 27.2888C76.1576 27.6423 76.8273 27.819 77.5342 27.819C78.2597 27.819 78.9294 27.633 79.5432 27.2609C80.1757 26.8889 80.678 26.3587 81.05 25.6704C81.4407 24.9822 81.636 24.1637 81.636 23.2149ZM95.3292 31.2511C93.841 31.2511 92.5016 30.9256 91.3111 30.2745C90.1205 29.6048 89.1811 28.6654 88.4928 27.4563C87.8232 26.2471 87.4883 24.8519 87.4883 23.2707C87.4883 21.6895 87.8325 20.2944 88.5207 19.0852C89.2276 17.8761 90.1856 16.946 91.3948 16.2949C92.6039 15.6252 93.9526 15.2903 95.4408 15.2903C96.929 15.2903 98.2777 15.6252 99.4868 16.2949C100.696 16.946 101.645 17.8761 102.333 19.0852C103.04 20.2944 103.393 21.6895 103.393 23.2707C103.393 24.8519 103.031 26.2471 102.305 27.4563C101.598 28.6654 100.631 29.6048 99.4031 30.2745C98.1939 30.9256 96.836 31.2511 95.3292 31.2511ZM95.3292 27.8469C96.0361 27.8469 96.6965 27.6795 97.3103 27.3446C97.9428 26.9912 98.4451 26.4703 98.8171 25.7821C99.1892 25.0938 99.3752 24.2567 99.3752 23.2707C99.3752 21.8012 98.9845 20.6757 98.2032 19.8944C97.4405 19.0945 96.5011 18.6946 95.385 18.6946C94.2689 18.6946 93.3294 19.0945 92.5667 19.8944C91.8226 20.6757 91.4506 21.8012 91.4506 23.2707C91.4506 24.7403 91.8133 25.8751 92.5388 26.675C93.2829 27.4563 94.213 27.8469 95.3292 27.8469ZM114.825 15.3183C116.667 15.3183 118.155 15.9042 119.29 17.0762C120.424 18.2295 120.992 19.8479 120.992 21.9314V31H117.085V22.4615C117.085 21.2338 116.778 20.2944 116.165 19.6433C115.551 18.9736 114.714 18.6388 113.653 18.6388C112.574 18.6388 111.719 18.9736 111.086 19.6433C110.472 20.2944 110.165 21.2338 110.165 22.4615V31H106.259V15.5415H110.165V17.4668C110.686 16.7971 111.347 16.2763 112.146 15.9042C112.965 15.5136 113.858 15.3183 114.825 15.3183Z" fill="white"/>
<path d="M100.62 36.8787H98.277C98.2342 36.5755 98.1468 36.3062 98.0148 36.0708C97.8829 35.8318 97.7134 35.6285 97.5065 35.4608C97.2997 35.2932 97.0607 35.1648 96.7896 35.0756C96.5221 34.9864 96.2314 34.9419 95.9175 34.9419C95.3504 34.9419 94.8563 35.0827 94.4354 35.3645C94.0145 35.6427 93.6882 36.0494 93.4563 36.5844C93.2245 37.1159 93.1086 37.7615 93.1086 38.5212C93.1086 39.3024 93.2245 39.9587 93.4563 40.4902C93.6917 41.0216 94.0199 41.4229 94.4408 41.694C94.8617 41.9651 95.3486 42.1006 95.9014 42.1006C96.2118 42.1006 96.4989 42.0596 96.7628 41.9776C97.0304 41.8955 97.2676 41.776 97.4744 41.6191C97.6813 41.4586 97.8525 41.2642 97.9881 41.0359C98.1272 40.8076 98.2235 40.5472 98.277 40.2548L100.62 40.2655C100.56 40.7684 100.408 41.2535 100.166 41.7207C99.9267 42.1844 99.6039 42.6 99.1973 42.9674C98.7942 43.3312 98.3127 43.6201 97.7527 43.8341C97.1962 44.0446 96.5667 44.1498 95.864 44.1498C94.8867 44.1498 94.0128 43.9287 93.2423 43.4864C92.4754 43.0441 91.8691 42.4038 91.4232 41.5656C90.9809 40.7274 90.7598 39.7126 90.7598 38.5212C90.7598 37.3263 90.9845 36.3098 91.4339 35.4715C91.8833 34.6333 92.4933 33.9948 93.2637 33.5561C94.0342 33.1138 94.9009 32.8927 95.864 32.8927C96.4989 32.8927 97.0874 32.9818 97.6296 33.1602C98.1753 33.3385 98.6587 33.5989 99.0796 33.9413C99.5004 34.2802 99.8429 34.6957 100.107 35.188C100.374 35.6802 100.546 36.2438 100.62 36.8787ZM109.05 33.0425H111.367V40.1584C111.367 40.9574 111.176 41.6565 110.794 42.2558C110.416 42.855 109.886 43.3223 109.205 43.6576C108.524 43.9893 107.73 44.1552 106.824 44.1552C105.915 44.1552 105.119 43.9893 104.438 43.6576C103.757 43.3223 103.227 42.855 102.849 42.2558C102.471 41.6565 102.282 40.9574 102.282 40.1584V33.0425H104.598V39.9605C104.598 40.3778 104.689 40.7488 104.871 41.0734C105.057 41.3979 105.317 41.653 105.652 41.8385C105.988 42.0239 106.378 42.1167 106.824 42.1167C107.274 42.1167 107.664 42.0239 107.996 41.8385C108.331 41.653 108.59 41.3979 108.772 41.0734C108.957 40.7488 109.05 40.3778 109.05 39.9605V33.0425ZM112.855 34.9526V33.0425H121.855V34.9526H118.5V44H116.21V34.9526H112.855Z" fill="url(#paint0_linear_310_494)"/>
<path d="M18.6945 6.48229C17.7925 6.38882 16.9005 6.37433 16.0256 6.43364L16.3795 10.6021C16.9624 10.5707 17.5555 10.5848 18.1549 10.6469C23.5 11.2008 27.5853 15.4007 28.1967 20.5214L32.5719 20.3102C31.8138 13.1532 26.14 7.25388 18.6945 6.48229ZM15.257 10.7181L14.903 6.55016C7.9864 7.52555 2.35721 13.1016 1.60474 20.3626C1.54617 20.9278 1.51862 21.4888 1.52126 22.0441L5.70804 21.8416C5.70943 21.4663 5.7294 21.088 5.7689 20.7068C6.30882 15.4968 10.3128 11.484 15.257 10.7181ZM15.8287 33.0932C10.3971 32.5303 6.26648 28.2019 5.76043 22.9689L1.56623 23.1716C2.12816 30.5313 7.88334 36.6645 15.485 37.4523C15.9878 37.5044 16.4876 37.532 16.9831 37.5355L16.6105 33.1471C16.3514 33.1385 16.0908 33.1204 15.8287 33.0932Z" fill="white"/>
<path d="M29.1161 24.8417L32.2576 35.8229L20.8449 32.9389L27.1513 31.011L29.1161 24.8417Z" fill="url(#paint1_linear_310_494)"/>
<path d="M35.811 26.7356L40.6426 43.8438L23.9876 39.671L32.983 36.6627L35.811 26.7356Z" fill="url(#paint2_linear_310_494)"/>
<mask id="mask0_310_494" style="mask-type:alpha" maskUnits="userSpaceOnUse" x="5" y="8" width="26" height="26">
<circle cx="17.8875" cy="21.2056" r="12.4131" transform="rotate(5.91651 17.8875 21.2056)" fill="white"/>
</mask>
<g mask="url(#mask0_310_494)">
<path d="M12.2907 13.4777C11.0394 14.1417 9.93106 15.0721 9.08763 16.2389C9.02245 16.3291 9.04271 16.4551 9.13288 16.5202C9.22305 16.5854 9.34899 16.5652 9.41417 16.475C10.2219 15.3576 11.2864 14.4651 12.4897 13.8284C15.3674 12.3056 18.9096 12.314 21.7277 13.9511C22.8176 14.5843 23.7938 15.4241 24.7132 16.3975C24.7896 16.4784 24.9171 16.4821 24.998 16.4057C25.0789 16.3293 25.0825 16.2017 25.0061 16.1209C24.0741 15.1341 23.0745 14.2711 21.951 13.6149C19.0069 11.8953 15.2998 11.8811 12.2907 13.4777Z" fill="#27AF99"/>
<path d="M8.79369 17.4412C8.85367 17.3475 8.82633 17.2229 8.73261 17.1629C8.6389 17.1029 8.51431 17.1303 8.45433 17.224C7.63129 18.5099 7.02962 20.9373 7.33113 23.1865C7.33125 23.1873 7.33138 23.1882 7.3315 23.1891C7.62795 25.1993 8.52668 27.2523 10.0532 28.6562C10.0546 28.6575 10.0561 28.6588 10.0576 28.6601C10.3447 28.909 10.6551 29.1359 10.9658 29.3631C11.6204 29.8417 12.2765 30.3214 12.7198 31.0094C12.7801 31.1029 12.9047 31.1299 12.9983 31.0697C13.0918 31.0094 13.1188 30.8847 13.0585 30.7912C12.5951 30.072 11.9185 29.5724 11.2417 29.0727C10.9287 28.8416 10.6157 28.6105 10.3238 28.3576C8.88196 27.0305 8.01668 25.0717 7.73031 23.1316C7.44069 20.9685 8.02682 18.6393 8.79369 17.4412Z" fill="#27AF99"/>
<path d="M11.0606 16.0085C12.8383 14.2026 15.4091 13.2795 17.9942 13.6148C18.1045 13.6291 18.1824 13.7301 18.1681 13.8405C18.1538 13.9508 18.0527 14.0287 17.9424 14.0144C15.484 13.6956 13.0377 14.5739 11.3469 16.292C11.3463 16.2926 11.3457 16.2932 11.3451 16.2938C9.18077 18.4376 8.44169 21.8777 9.59598 24.7294C9.63773 24.8325 9.58796 24.9499 9.48483 24.9917C9.38169 25.0334 9.26424 24.9837 9.22249 24.8805C8.00649 21.8764 8.78331 18.2649 11.0606 16.0085Z" fill="#27AF99"/>
<path d="M19.039 13.859C18.9312 13.8318 18.8216 13.8971 18.7944 14.005C18.7672 14.1129 18.8326 14.2224 18.9405 14.2497C20.5779 14.6627 21.8873 15.537 23.2121 16.7803C23.2932 16.8565 23.4207 16.8524 23.4968 16.7713C23.573 16.6902 23.5689 16.5627 23.4878 16.4865C22.1341 15.216 20.7659 14.2946 19.039 13.859Z" fill="#27AF99"/>
<path d="M23.9595 17.2127C24.0374 17.1333 24.165 17.1321 24.2444 17.21C25.113 18.0627 26.0325 19.0843 26.6116 19.9295C26.6745 20.0213 26.6511 20.1467 26.5593 20.2096C26.4675 20.2725 26.3421 20.249 26.2792 20.1573C25.721 19.3426 24.8221 18.3417 23.9621 17.4976C23.8827 17.4196 23.8816 17.2921 23.9595 17.2127Z" fill="#27AF99"/>
<path d="M10.0221 25.6584C9.96922 25.5605 9.84699 25.524 9.7491 25.5769C9.65121 25.6298 9.61473 25.752 9.66762 25.8499C9.9671 26.4042 10.3306 26.9234 10.7494 27.3938C11.181 27.8785 11.6946 28.2688 12.2083 28.6592C12.6286 28.9785 13.049 29.298 13.4248 29.6693C13.9184 30.1572 14.2739 30.7706 14.5281 31.43C14.5682 31.5338 14.6848 31.5856 14.7886 31.5455C14.8924 31.5055 14.9441 31.3889 14.9041 31.2851C14.6354 30.5881 14.2527 29.9211 13.708 29.3828C13.3348 29.0139 12.9164 28.6967 12.4982 28.3796C11.9879 27.9927 11.4778 27.606 11.0503 27.1258C10.6524 26.6789 10.3068 26.1854 10.0221 25.6584Z" fill="#27AF99"/>
<path d="M10.9602 18.7949C11.0601 18.844 11.1013 18.9647 11.0522 19.0646C10.0598 21.0847 10.1588 23.5408 11.4131 25.4146C11.9371 26.1974 12.6621 26.7877 13.3868 27.3779C13.7949 27.7103 14.203 28.0426 14.5751 28.4092C15.382 29.2042 16.1165 30.2138 16.3247 31.5461C16.3419 31.656 16.2667 31.759 16.1568 31.7762C16.0468 31.7934 15.9438 31.7182 15.9266 31.6083C15.7369 30.3945 15.0668 29.4593 14.2923 28.6963C13.9148 28.3243 13.5031 27.9871 13.0916 27.6502C12.3533 27.0457 11.6159 26.4419 11.0783 25.6387C9.73903 23.638 9.6387 21.0279 10.6906 18.8869C10.7396 18.787 10.8604 18.7458 10.9602 18.7949Z" fill="#27AF99"/>
<path d="M16.9866 14.9195C14.7295 14.8734 12.5934 16.0695 11.2976 17.8745C11.2328 17.9649 11.2534 18.0908 11.3438 18.1557C11.4342 18.2206 11.5601 18.1999 11.625 18.1095C12.852 16.4002 14.868 15.2792 16.9784 15.3223C18.7571 15.3586 20.5009 16.1705 21.9385 17.4744C22.0209 17.5491 22.1483 17.5429 22.2231 17.4605C22.2978 17.3781 22.2916 17.2506 22.2092 17.1759C20.7164 15.822 18.8831 14.9582 16.9866 14.9195Z" fill="#27AF99"/>
<path d="M22.8193 17.9176C22.894 17.8351 23.0214 17.8289 23.1039 17.9036C24.4916 19.161 25.7755 20.7125 26.8621 22.3531C26.9235 22.4459 26.8981 22.5709 26.8054 22.6323C26.7126 22.6938 26.5876 22.6684 26.5262 22.5756C25.4547 20.9578 24.192 19.4332 22.8333 18.2022C22.7509 18.1274 22.7446 18 22.8193 17.9176Z" fill="#27AF99"/>
<path d="M13.2266 17.7531C10.9308 19.8171 10.7121 23.3256 12.7479 25.5901C12.9653 25.832 13.1999 26.0497 13.448 26.2434C13.5357 26.3119 13.6623 26.2963 13.7308 26.2086C13.7992 26.1209 13.7836 25.9943 13.6959 25.9258C13.4662 25.7465 13.249 25.5449 13.0475 25.3208C11.1646 23.2263 11.361 19.9721 13.496 18.0527C14.4607 17.1854 15.6549 16.7406 16.848 16.707C16.9592 16.7038 17.0468 16.6111 17.0437 16.4999C17.0406 16.3887 16.9479 16.3011 16.8366 16.3042C15.5509 16.3405 14.2646 16.8199 13.2266 17.7531Z" fill="#27AF99"/>
<path d="M17.6745 16.561C17.6827 16.4501 17.7794 16.3668 17.8903 16.375C19.1714 16.4701 20.3572 17.3635 21.3148 18.147C22.3935 19.0296 23.316 20.0073 23.7326 20.4706C23.807 20.5534 23.8002 20.6807 23.7175 20.7551C23.6347 20.8295 23.5073 20.8227 23.433 20.74C23.0231 20.2841 22.116 19.3231 21.0597 18.4588C20.1707 17.7314 19.0531 16.8653 17.8605 16.7768C17.7495 16.7686 17.6663 16.672 17.6745 16.561Z" fill="#27AF99"/>
<path d="M24.4659 21.3628C24.3983 21.2744 24.2719 21.2576 24.1835 21.3251C24.0951 21.3927 24.0782 21.5191 24.1458 21.6075C24.9019 22.5965 25.6345 23.6048 26.205 24.6317C26.259 24.729 26.3817 24.764 26.4789 24.71C26.5762 24.656 26.6112 24.5333 26.5572 24.4361C25.9717 23.3821 25.224 22.3545 24.4659 21.3628Z" fill="#27AF99"/>
<path d="M14.1849 26.578C14.2517 26.4891 14.378 26.4711 14.4669 26.5379C16.2299 27.8618 17.3248 29.5198 17.6367 31.554C17.6536 31.664 17.5781 31.7668 17.4681 31.7837C17.3582 31.8006 17.2553 31.7251 17.2385 31.6151C16.945 29.7011 15.9177 28.1312 14.225 26.8601C14.136 26.7933 14.1181 26.667 14.1849 26.578Z" fill="#27AF99"/>
<path d="M14.1029 18.7279C12.6126 20.0677 12.1878 22.5356 13.342 24.1196C13.8473 24.8131 14.5011 25.3558 15.1552 25.8987C15.7264 26.3728 16.2978 26.8471 16.7706 27.422C17.8528 28.7378 18.4207 30.1164 18.5562 31.5506C18.5667 31.6614 18.665 31.7427 18.7757 31.7322C18.8865 31.7218 18.9678 31.6235 18.9574 31.5127C18.8136 29.9916 18.2104 28.5383 17.0818 27.166C16.6111 26.5937 16.0411 26.1214 15.4714 25.6494C14.8199 25.1097 14.169 24.5704 13.6676 23.8823C12.6537 22.4908 13.0109 20.2514 14.3723 19.0275C15.0073 18.4567 16.9592 17.3236 19.0122 18.5561C20.2988 19.3285 21.6861 20.692 22.8678 22.1659C24.0493 23.6397 25.0085 25.2029 25.45 26.3613C25.4896 26.4652 25.606 26.5174 25.71 26.4778C25.8139 26.4381 25.8661 26.3217 25.8265 26.2178C25.3646 25.0058 24.3781 23.4057 23.1821 21.9139C21.9863 20.4223 20.5642 19.0179 19.2196 18.2107C16.9407 16.8425 14.7913 18.1091 14.1029 18.7279Z" fill="#27AF99"/>
<path d="M19.754 29.651C19.8639 29.6339 19.9669 29.7092 19.984 29.8191C20.0191 30.0451 20.0714 30.2676 20.1237 30.4901C20.1759 30.7126 20.2282 30.9352 20.2633 31.1612C20.2804 31.2711 20.2052 31.3741 20.0952 31.3912C19.9853 31.4083 19.8823 31.3331 19.8652 31.2231C19.8301 30.9972 19.7778 30.7747 19.7255 30.5521C19.6733 30.3296 19.621 30.1071 19.5859 29.8811C19.5687 29.7711 19.644 29.6681 19.754 29.651Z" fill="#27AF99"/>
<path d="M14.4783 21.2026C14.5057 21.0947 14.4406 20.9851 14.3327 20.9577C14.2249 20.9302 14.1153 20.9954 14.0878 21.1033C13.8513 22.0334 13.9779 22.9063 14.6965 23.7057C15.1244 24.1816 15.5585 24.4949 16.0038 24.8162C16.67 25.297 17.2935 25.8139 17.8291 26.4415C18.4796 27.2035 18.9457 28.0151 19.2484 28.9153C19.2839 29.0207 19.3982 29.0775 19.5036 29.042C19.6091 29.0065 19.6658 28.8923 19.6303 28.7868C19.3102 27.835 18.8175 26.9787 18.1356 26.1799C17.579 25.5278 16.9319 24.9894 16.2397 24.4895C15.7927 24.1666 15.3936 23.8784 14.9962 23.4363C14.3804 22.7514 14.2699 22.0224 14.4783 21.2026Z" fill="#27AF99"/>
<path d="M14.5898 20.1505C15.0976 19.4648 15.9074 19.02 16.7581 18.9758C18.2777 18.897 19.5619 20.0901 20.6025 21.057L20.6555 21.1062C21.9972 22.3523 23.0413 23.7956 23.9481 25.3724C24.0035 25.4688 23.9703 25.592 23.8738 25.6474C23.7774 25.7029 23.6542 25.6697 23.5988 25.5732C22.7056 24.0201 21.6851 22.6123 20.3814 21.4015C20.3382 21.3614 20.2945 21.3207 20.2503 21.2795L20.2496 21.2789C19.3107 20.4038 18.1347 19.3079 16.779 19.3782C16.0517 19.4159 15.3517 19.7987 14.9136 20.3903C14.8474 20.4797 14.7213 20.4985 14.6318 20.4323C14.5424 20.366 14.5236 20.2399 14.5898 20.1505Z" fill="#27AF99"/>
<path d="M24.4065 26.3082C24.3548 26.2097 24.2331 26.1717 24.1345 26.2233C24.036 26.275 23.998 26.3968 24.0497 26.4953C24.2789 26.9325 24.4281 27.3791 24.5169 27.8338C24.5382 27.943 24.6441 28.0143 24.7533 27.9929C24.8625 27.9716 24.9337 27.8658 24.9124 27.7566C24.8166 27.2665 24.6552 26.7825 24.4065 26.3082Z" fill="#27AF99"/>
<path d="M21.7193 24.7927C21.8102 24.7286 21.9359 24.7503 22.0001 24.8412C22.9335 26.1641 23.5728 27.5177 23.8918 28.9034C23.9167 29.0118 23.849 29.12 23.7406 29.1449C23.6322 29.1699 23.5241 29.1022 23.4991 28.9938C23.1939 27.6676 22.5797 26.3615 21.6708 25.0735C21.6067 24.9826 21.6284 24.8569 21.7193 24.7927Z" fill="#27AF99"/>
<path d="M17.9383 20.6491C17.3355 20.1875 16.4775 20.1912 15.8993 20.7111C15.1162 21.4151 15.2764 22.6983 16.1302 23.2586C17.6231 24.2603 18.8 25.4613 19.66 26.8639L19.6607 26.8649C20.4394 28.1183 20.9436 29.4224 21.1799 30.6991C21.2001 30.8085 21.3052 30.8808 21.4147 30.8605C21.5241 30.8403 21.5963 30.7352 21.5761 30.6258C21.3301 29.2968 20.8067 27.946 20.0032 26.6528C19.11 25.1961 17.8904 23.9543 16.3538 22.9234L16.352 22.9222C15.7129 22.5034 15.5793 21.5406 16.1686 21.0107C16.594 20.6284 17.2344 20.6184 17.6923 20.9682C19.0475 22.0371 20.2156 23.1079 21.0427 24.1906C21.1102 24.279 21.2367 24.2959 21.3251 24.2284C21.4135 24.1608 21.4304 24.0344 21.3629 23.946C20.5056 22.8238 19.3068 21.7283 17.9406 20.6509C17.9399 20.6503 17.9391 20.6497 17.9383 20.6491Z" fill="#27AF99"/>
<path d="M22.1663 28.5813C22.2739 28.553 22.3841 28.6172 22.4125 28.7248L22.71 29.8542C22.7384 29.9618 22.6741 30.072 22.5665 30.1004C22.4589 30.1287 22.3487 30.0645 22.3204 29.9569L22.0228 28.8274C21.9945 28.7199 22.0587 28.6096 22.1663 28.5813Z" fill="#27AF99"/>
<path d="M17.0212 21.7349C16.9298 21.6714 16.8043 21.6939 16.7407 21.7852C16.6772 21.8766 16.6997 22.0021 16.7911 22.0657C19.2298 23.7621 20.8582 25.713 21.6891 27.875C21.729 27.9788 21.8455 28.0307 21.9494 27.9908C22.0532 27.9508 22.1051 27.8343 22.0652 27.7304C21.1988 25.4762 19.5094 23.4658 17.0212 21.7349Z" fill="#27AF99"/>
</g>
<defs>
<linearGradient id="paint0_linear_310_494" x1="90" y1="30.8852" x2="114.415" y2="56.2601" gradientUnits="userSpaceOnUse">
<stop stop-color="#60E86E"/>
<stop offset="1" stop-color="#21AA9E"/>
</linearGradient>
<linearGradient id="paint1_linear_310_494" x1="21.7092" y1="24.5982" x2="33.7256" y2="33.9333" gradientUnits="userSpaceOnUse">
<stop stop-color="#60E86E"/>
<stop offset="1" stop-color="#21AA9E"/>
</linearGradient>
<linearGradient id="paint2_linear_310_494" x1="25.3557" y1="26.4688" x2="43.5959" y2="39.8043" gradientUnits="userSpaceOnUse">
<stop stop-color="#60E86E"/>
<stop offset="1" stop-color="#21AA9E"/>
</linearGradient>
</defs>
</svg>
