<svg width="141" height="48" viewBox="0 0 141 48" fill="none" xmlns="http://www.w3.org/2000/svg">
<path d="M38.357 23.2149C38.357 21.6523 38.6639 20.2665 39.2778 19.0573C39.9103 17.8482 40.7567 16.9181 41.817 16.267C42.8959 15.6159 44.0958 15.2903 45.4165 15.2903C46.5699 15.2903 47.5744 15.5229 48.4301 15.9879C49.3044 16.453 50.002 17.039 50.5229 17.7459V15.5415H54.4573V31H50.5229V28.7398C50.0206 29.4653 49.323 30.0699 48.4301 30.5535C47.5558 31.0186 46.542 31.2511 45.3886 31.2511C44.0865 31.2511 42.8959 30.9163 41.817 30.2466C40.7567 29.5769 39.9103 28.6375 39.2778 27.4284C38.6639 26.2006 38.357 24.7961 38.357 23.2149ZM50.5229 23.2707C50.5229 22.322 50.3369 21.5128 49.9648 20.8431C49.5928 20.1549 49.0905 19.634 48.458 19.2805C47.8255 18.9085 47.1466 18.7225 46.4211 18.7225C45.6956 18.7225 45.0259 18.8992 44.412 19.2526C43.7981 19.6061 43.2959 20.127 42.9052 20.8152C42.5332 21.4849 42.3472 22.2848 42.3472 23.2149C42.3472 24.145 42.5332 24.9636 42.9052 25.6704C43.2959 26.3587 43.7981 26.8889 44.412 27.2609C45.0445 27.633 45.7142 27.819 46.4211 27.819C47.1466 27.819 47.8255 27.6423 48.458 27.2888C49.0905 26.9168 49.5928 26.3959 49.9648 25.7262C50.3369 25.038 50.5229 24.2195 50.5229 23.2707ZM62.1791 17.9412C62.6814 17.1227 63.3325 16.4809 64.1324 16.0158C64.9509 15.5508 65.881 15.3183 66.9227 15.3183V19.4201H65.8903C64.6625 19.4201 63.7324 19.7084 63.0999 20.2851C62.4861 20.8617 62.1791 21.8663 62.1791 23.2986V31H58.2726V15.5415H62.1791V17.9412ZM73.4604 17.8017C73.9627 17.0576 74.651 16.453 75.5253 15.9879C76.4182 15.5229 77.432 15.2903 78.5667 15.2903C79.8875 15.2903 81.078 15.6159 82.1384 16.267C83.2173 16.9181 84.0637 17.8482 84.6776 19.0573C85.3101 20.2479 85.6263 21.6337 85.6263 23.2149C85.6263 24.7961 85.3101 26.2006 84.6776 27.4284C84.0637 28.6375 83.2173 29.5769 82.1384 30.2466C81.078 30.9163 79.8875 31.2511 78.5667 31.2511C77.4134 31.2511 76.3996 31.0279 75.5253 30.5814C74.6696 30.1164 73.9813 29.5211 73.4604 28.7956V31H69.5539V10.3514H73.4604V17.8017ZM81.6361 23.2149C81.6361 22.2848 81.4408 21.4849 81.0501 20.8152C80.6781 20.127 80.1758 19.6061 79.5434 19.2526C78.9295 18.8992 78.2598 18.7225 77.5343 18.7225C76.8274 18.7225 76.1577 18.9085 75.5253 19.2805C74.9114 19.634 74.4091 20.1549 74.0185 20.8431C73.6464 21.5314 73.4604 22.3406 73.4604 23.2707C73.4604 24.2009 73.6464 25.0101 74.0185 25.6983C74.4091 26.3866 74.9114 26.9168 75.5253 27.2888C76.1577 27.6423 76.8274 27.819 77.5343 27.819C78.2598 27.819 78.9295 27.633 79.5434 27.2609C80.1758 26.8889 80.6781 26.3587 81.0501 25.6704C81.4408 24.9822 81.6361 24.1637 81.6361 23.2149ZM95.3293 31.2511C93.8411 31.2511 92.5018 30.9256 91.3112 30.2745C90.1207 29.6048 89.1812 28.6654 88.493 27.4563C87.8233 26.2471 87.4884 24.8519 87.4884 23.2707C87.4884 21.6895 87.8326 20.2944 88.5209 19.0852C89.2277 17.8761 90.1858 16.946 91.3949 16.2949C92.6041 15.6252 93.9527 15.2903 95.4409 15.2903C96.9291 15.2903 98.2778 15.6252 99.4869 16.2949C100.696 16.946 101.645 17.8761 102.333 19.0852C103.04 20.2944 103.393 21.6895 103.393 23.2707C103.393 24.8519 103.031 26.2471 102.305 27.4563C101.598 28.6654 100.631 29.6048 99.4032 30.2745C98.1941 30.9256 96.8361 31.2511 95.3293 31.2511ZM95.3293 27.8469C96.0362 27.8469 96.6966 27.6795 97.3105 27.3446C97.9429 26.9912 98.4452 26.4703 98.8172 25.7821C99.1893 25.0938 99.3753 24.2567 99.3753 23.2707C99.3753 21.8012 98.9847 20.6757 98.2034 19.8944C97.4407 19.0945 96.5013 18.6946 95.3851 18.6946C94.269 18.6946 93.3296 19.0945 92.5669 19.8944C91.8228 20.6757 91.4507 21.8012 91.4507 23.2707C91.4507 24.7403 91.8135 25.8751 92.539 26.675C93.2831 27.4563 94.2132 27.8469 95.3293 27.8469ZM114.825 15.3183C116.667 15.3183 118.155 15.9042 119.29 17.0762C120.425 18.2295 120.992 19.8479 120.992 21.9314V31H117.086V22.4615C117.086 21.2338 116.779 20.2944 116.165 19.6433C115.551 18.9736 114.714 18.6388 113.653 18.6388C112.574 18.6388 111.719 18.9736 111.086 19.6433C110.472 20.2944 110.165 21.2338 110.165 22.4615V31H106.259V15.5415H110.165V17.4668C110.686 16.7971 111.347 16.2763 112.147 15.9042C112.965 15.5136 113.858 15.3183 114.825 15.3183ZM139.077 22.9359C139.077 23.494 139.04 23.9962 138.966 24.4427H127.665C127.758 25.5588 128.148 26.4331 128.837 27.0656C129.525 27.6981 130.371 28.0143 131.376 28.0143C132.827 28.0143 133.859 27.3912 134.473 26.1448H138.686C138.24 27.633 137.384 28.8607 136.119 29.8281C134.854 30.7768 133.301 31.2511 131.459 31.2511C129.971 31.2511 128.632 30.9256 127.441 30.2745C126.269 29.6048 125.349 28.6654 124.679 27.4563C124.028 26.2471 123.702 24.8519 123.702 23.2707C123.702 21.6709 124.028 20.2665 124.679 19.0573C125.33 17.8482 126.242 16.9181 127.413 16.267C128.585 15.6159 129.934 15.2903 131.459 15.2903C132.929 15.2903 134.241 15.6066 135.394 16.2391C136.566 16.8715 137.468 17.7738 138.101 18.9457C138.752 20.099 139.077 21.4291 139.077 22.9359ZM135.031 21.8198C135.013 20.8152 134.65 20.0153 133.943 19.4201C133.236 18.8062 132.371 18.4992 131.348 18.4992C130.381 18.4992 129.562 18.7969 128.892 19.3922C128.241 19.9688 127.841 20.778 127.693 21.8198H135.031Z" fill="#0A2924"/>
<path d="M117.64 36.6651H115.296C115.254 36.3619 115.166 36.0926 115.034 35.8572C114.902 35.6182 114.733 35.4149 114.526 35.2472C114.319 35.0796 114.08 34.9512 113.809 34.862C113.542 34.7728 113.251 34.7282 112.937 34.7282C112.37 34.7282 111.876 34.8691 111.455 35.1509C111.034 35.4291 110.708 35.8358 110.476 36.3708C110.244 36.9023 110.128 37.5479 110.128 38.3076C110.128 39.0888 110.244 39.7451 110.476 40.2765C110.711 40.808 111.039 41.2093 111.46 41.4804C111.881 41.7515 112.368 41.887 112.921 41.887C113.231 41.887 113.518 41.846 113.782 41.7639C114.05 41.6819 114.287 41.5624 114.494 41.4055C114.701 41.245 114.872 41.0506 115.008 40.8223C115.147 40.594 115.243 40.3336 115.296 40.0411L117.64 40.0518C117.579 40.5548 117.428 41.0399 117.185 41.5071C116.946 41.9708 116.623 42.3864 116.217 42.7538C115.814 43.1176 115.332 43.4065 114.772 43.6205C114.216 43.831 113.586 43.9362 112.883 43.9362C111.906 43.9362 111.032 43.715 110.262 43.2727C109.495 42.8304 108.889 42.1902 108.443 41.352C108 40.5137 107.779 39.499 107.779 38.3076C107.779 37.1127 108.004 36.0961 108.453 35.2579C108.903 34.4197 109.513 33.7812 110.283 33.3425C111.054 32.9002 111.92 32.679 112.883 32.679C113.518 32.679 114.107 32.7682 114.649 32.9466C115.195 33.1249 115.678 33.3853 116.099 33.7277C116.52 34.0666 116.862 34.4821 117.126 34.9743C117.394 35.4666 117.565 36.0301 117.64 36.6651ZM126.069 32.8289H128.386V39.9448C128.386 40.7438 128.195 41.4429 127.814 42.0422C127.436 42.6414 126.906 43.1087 126.225 43.444C125.543 43.7757 124.75 43.9415 123.844 43.9415C122.934 43.9415 122.139 43.7757 121.457 43.444C120.776 43.1087 120.246 42.6414 119.868 42.0422C119.49 41.4429 119.301 40.7438 119.301 39.9448V32.8289H121.618V39.7469C121.618 40.1642 121.709 40.5351 121.891 40.8597C122.076 41.1843 122.337 41.4394 122.672 41.6248C123.007 41.8103 123.398 41.9031 123.844 41.9031C124.293 41.9031 124.684 41.8103 125.015 41.6248C125.351 41.4394 125.609 41.1843 125.791 40.8597C125.977 40.5351 126.069 40.1642 126.069 39.7469V32.8289ZM129.875 34.7389V32.8289H138.874V34.7389H135.519V43.7864H133.23V34.7389H129.875Z" fill="url(#paint0_linear_153_900)"/>
<path d="M18.6945 6.48241C17.7925 6.38894 16.9005 6.37445 16.0256 6.43376L16.3795 10.6022C16.9624 10.5708 17.5555 10.5849 18.1549 10.647C23.5 11.201 27.5853 15.4009 28.1967 20.5215L32.5719 20.3104C31.8138 13.1533 26.14 7.254 18.6945 6.48241ZM15.257 10.7182L14.903 6.55028C7.9864 7.52567 2.35721 13.1017 1.60474 20.3627C1.54617 20.9279 1.51862 21.489 1.52126 22.0442L5.70804 21.8417C5.70943 21.4664 5.7294 21.0881 5.7689 20.7069C6.30882 15.4969 10.3128 11.4841 15.257 10.7182ZM15.8287 33.0933C10.3971 32.5305 6.26648 28.202 5.76043 22.969L1.56623 23.1717C2.12816 30.5315 7.88334 36.6647 15.485 37.4524C15.9878 37.5045 16.4876 37.5322 16.9831 37.5356L16.6105 33.1472C16.3514 33.1386 16.0908 33.1205 15.8287 33.0933Z" fill="#0A2924"/>
<path d="M29.116 24.8418L32.2575 35.8231L20.8448 32.939L27.1513 31.0111L29.116 24.8418Z" fill="url(#paint1_linear_153_900)"/>
<path d="M35.8111 26.7355L40.6426 43.8436L23.9876 39.6709L32.9831 36.6626L35.8111 26.7355Z" fill="url(#paint2_linear_153_900)"/>
<mask id="mask0_153_900" style="mask-type:alpha" maskUnits="userSpaceOnUse" x="5" y="8" width="26" height="26">
<circle cx="17.8875" cy="21.2056" r="12.4131" transform="rotate(5.91651 17.8875 21.2056)" fill="white"/>
</mask>
<g mask="url(#mask0_153_900)">
<path d="M12.2905 13.4777C11.0392 14.1417 9.93088 15.0721 9.08745 16.2389C9.02226 16.3291 9.04252 16.4551 9.13269 16.5202C9.22287 16.5854 9.34881 16.5652 9.41399 16.475C10.2217 15.3576 11.2862 14.4651 12.4895 13.8284C15.3672 12.3056 18.9094 12.314 21.7275 13.9511C22.8174 14.5843 23.7936 15.4241 24.713 16.3975C24.7894 16.4784 24.9169 16.4821 24.9978 16.4057C25.0787 16.3293 25.0823 16.2017 25.0059 16.1209C24.0739 15.1341 23.0743 14.2711 21.9509 13.6149C19.0068 11.8953 15.2996 11.8811 12.2905 13.4777Z" fill="#27AF99"/>
<path d="M8.79351 17.4412C8.85349 17.3475 8.82614 17.2229 8.73243 17.1629C8.63872 17.1029 8.51412 17.1303 8.45414 17.224C7.63111 18.5099 7.02944 20.9373 7.33095 23.1865C7.33107 23.1873 7.33119 23.1882 7.33132 23.1891C7.62777 25.1993 8.52649 27.2523 10.053 28.6562C10.0545 28.6575 10.0559 28.6588 10.0574 28.6601C10.3445 28.909 10.6549 29.1359 10.9657 29.3631C11.6202 29.8417 12.2763 30.3214 12.7196 31.0094C12.7799 31.1029 12.9045 31.1299 12.9981 31.0697C13.0916 31.0094 13.1186 30.8847 13.0583 30.7912C12.5949 30.072 11.9183 29.5724 11.2415 29.0727C10.9286 28.8416 10.6155 28.6105 10.3236 28.3576C8.88178 27.0305 8.01649 25.0717 7.73013 23.1316C7.44051 20.9685 8.02664 18.6393 8.79351 17.4412Z" fill="#27AF99"/>
<path d="M11.0604 16.0085C12.8382 14.2026 15.4089 13.2795 17.994 13.6148C18.1044 13.6291 18.1822 13.7301 18.1679 13.8405C18.1536 13.9508 18.0525 14.0287 17.9422 14.0144C15.4838 13.6956 13.0375 14.5739 11.3467 16.292C11.3461 16.2926 11.3455 16.2932 11.3449 16.2938C9.18059 18.4376 8.44151 21.8777 9.5958 24.7294C9.63754 24.8325 9.58778 24.9499 9.48464 24.9917C9.38151 25.0334 9.26406 24.9837 9.22231 24.8805C8.00631 21.8764 8.78312 18.2649 11.0604 16.0085Z" fill="#27AF99"/>
<path d="M19.0389 13.859C18.931 13.8318 18.8215 13.8971 18.7942 14.005C18.767 14.1129 18.8324 14.2224 18.9403 14.2497C20.5777 14.6627 21.8871 15.537 23.2119 16.7803C23.293 16.8565 23.4205 16.8524 23.4966 16.7713C23.5728 16.6902 23.5688 16.5627 23.4876 16.4865C22.1339 15.216 20.7657 14.2946 19.0389 13.859Z" fill="#27AF99"/>
<path d="M23.9593 17.2127C24.0373 17.1333 24.1648 17.1321 24.2442 17.21C25.1129 18.0627 26.0323 19.0843 26.6114 19.9295C26.6743 20.0213 26.6509 20.1467 26.5591 20.2096C26.4673 20.2725 26.3419 20.249 26.279 20.1573C25.7208 19.3426 24.822 18.3417 23.962 17.4976C23.8826 17.4196 23.8814 17.2921 23.9593 17.2127Z" fill="#27AF99"/>
<path d="M10.0219 25.6584C9.96904 25.5605 9.84681 25.524 9.74892 25.5769C9.65103 25.6298 9.61454 25.752 9.66743 25.8499C9.96692 26.4042 10.3305 26.9234 10.7492 27.3938C11.1808 27.8785 11.6944 28.2688 12.2081 28.6592C12.6284 28.9785 13.0488 29.298 13.4246 29.6693C13.9183 30.1572 14.2737 30.7706 14.528 31.43C14.568 31.5338 14.6846 31.5856 14.7884 31.5455C14.8922 31.5055 14.9439 31.3889 14.9039 31.2851C14.6352 30.5881 14.2525 29.9211 13.7079 29.3828C13.3346 29.0139 12.9162 28.6967 12.498 28.3796C11.9877 27.9927 11.4776 27.606 11.0501 27.1258C10.6522 26.6789 10.3066 26.1854 10.0219 25.6584Z" fill="#27AF99"/>
<path d="M10.96 18.7949C11.0599 18.844 11.1011 18.9647 11.052 19.0646C10.0596 21.0847 10.1586 23.5408 11.4129 25.4146C11.9369 26.1974 12.6619 26.7877 13.3866 27.3779C13.7948 27.7103 14.2028 28.0426 14.5749 28.4092C15.3818 29.2042 16.1163 30.2138 16.3245 31.5461C16.3417 31.656 16.2665 31.759 16.1566 31.7762C16.0467 31.7934 15.9436 31.7182 15.9264 31.6083C15.7367 30.3945 15.0666 29.4593 14.2922 28.6963C13.9146 28.3243 13.5029 27.9871 13.0914 27.6502C12.3531 27.0457 11.6157 26.4419 11.0781 25.6387C9.73885 23.638 9.63851 21.0279 10.6904 18.8869C10.7394 18.787 10.8602 18.7458 10.96 18.7949Z" fill="#27AF99"/>
<path d="M16.9864 14.9195C14.7293 14.8734 12.5932 16.0695 11.2975 17.8745C11.2326 17.9649 11.2532 18.0908 11.3436 18.1557C11.434 18.2206 11.5599 18.1999 11.6248 18.1095C12.8518 16.4002 14.8679 15.2792 16.9782 15.3223C18.7569 15.3586 20.5007 16.1705 21.9383 17.4744C22.0208 17.5491 22.1482 17.5429 22.2229 17.4605C22.2977 17.3781 22.2914 17.2506 22.209 17.1759C20.7163 15.822 18.8829 14.9582 16.9864 14.9195Z" fill="#27AF99"/>
<path d="M22.8191 17.9176C22.8938 17.8351 23.0212 17.8289 23.1037 17.9036C24.4914 19.161 25.7753 20.7125 26.8619 22.3531C26.9233 22.4459 26.8979 22.5709 26.8052 22.6323C26.7124 22.6938 26.5874 22.6684 26.526 22.5756C25.4545 20.9578 24.1918 19.4332 22.8331 18.2022C22.7507 18.1274 22.7444 18 22.8191 17.9176Z" fill="#27AF99"/>
<path d="M13.2264 17.7531C10.9306 19.8171 10.7119 23.3256 12.7477 25.5901C12.9652 25.832 13.1997 26.0497 13.4478 26.2434C13.5355 26.3119 13.6621 26.2963 13.7306 26.2086C13.799 26.1209 13.7834 25.9943 13.6957 25.9258C13.466 25.7465 13.2488 25.5449 13.0473 25.3208C11.1644 23.2263 11.3608 19.9721 13.4958 18.0527C14.4606 17.1854 15.6547 16.7406 16.8478 16.707C16.959 16.7038 17.0467 16.6111 17.0435 16.4999C17.0404 16.3887 16.9477 16.3011 16.8364 16.3042C15.5507 16.3405 14.2644 16.8199 13.2264 17.7531Z" fill="#27AF99"/>
<path d="M17.6743 16.561C17.6825 16.4501 17.7792 16.3668 17.8901 16.375C19.1712 16.4701 20.357 17.3635 21.3147 18.147C22.3933 19.0296 23.3158 20.0073 23.7324 20.4706C23.8068 20.5534 23.8 20.6807 23.7173 20.7551C23.6345 20.8295 23.5072 20.8227 23.4328 20.74C23.023 20.2841 22.1159 19.3231 21.0595 18.4588C20.1705 17.7314 19.053 16.8653 17.8603 16.7768C17.7494 16.7686 17.6661 16.672 17.6743 16.561Z" fill="#27AF99"/>
<path d="M24.4657 21.3628C24.3982 21.2744 24.2717 21.2576 24.1833 21.3251C24.0949 21.3927 24.0781 21.5191 24.1456 21.6075C24.9017 22.5965 25.6343 23.6048 26.2048 24.6317C26.2588 24.729 26.3815 24.764 26.4788 24.71C26.576 24.656 26.6111 24.5333 26.557 24.4361C25.9715 23.3821 25.2238 22.3545 24.4657 21.3628Z" fill="#27AF99"/>
<path d="M14.1847 26.578C14.2515 26.4891 14.3778 26.4711 14.4668 26.5379C16.2297 27.8618 17.3246 29.5198 17.6366 31.554C17.6534 31.664 17.5779 31.7668 17.468 31.7837C17.358 31.8006 17.2551 31.7251 17.2383 31.6151C16.9448 29.7011 15.9175 28.1312 14.2248 26.8601C14.1358 26.7933 14.1179 26.667 14.1847 26.578Z" fill="#27AF99"/>
<path d="M14.1027 18.7279C12.6125 20.0677 12.1876 22.5356 13.3418 24.1196C13.8471 24.8131 14.5009 25.3558 15.1551 25.8987C15.7262 26.3728 16.2976 26.8471 16.7704 27.422C17.8526 28.7378 18.4205 30.1164 18.556 31.5506C18.5665 31.6614 18.6648 31.7427 18.7756 31.7322C18.8863 31.7218 18.9676 31.6235 18.9572 31.5127C18.8134 29.9916 18.2103 28.5383 17.0816 27.166C16.6109 26.5937 16.0409 26.1214 15.4712 25.6494C14.8198 25.1097 14.1688 24.5704 13.6674 23.8823C12.6535 22.4908 13.0108 20.2514 14.3721 19.0275C15.0071 18.4567 16.959 17.3236 19.0121 18.5561C20.2986 19.3285 21.6859 20.692 22.8676 22.1659C24.0491 23.6397 25.0083 25.2029 25.4498 26.3613C25.4894 26.4652 25.6058 26.5174 25.7098 26.4778C25.8138 26.4381 25.8659 26.3217 25.8263 26.2178C25.3644 25.0058 24.378 23.4057 23.182 21.9139C21.9861 20.4223 20.564 19.0179 19.2195 18.2107C16.9405 16.8425 14.7911 18.1091 14.1027 18.7279Z" fill="#27AF99"/>
<path d="M19.7538 29.651C19.8637 29.6339 19.9667 29.7092 19.9838 29.8191C20.019 30.0451 20.0712 30.2676 20.1235 30.4901C20.1757 30.7126 20.228 30.9352 20.2632 31.1612C20.2803 31.2711 20.205 31.3741 20.0951 31.3912C19.9851 31.4083 19.8821 31.3331 19.865 31.2231C19.8299 30.9972 19.7776 30.7747 19.7254 30.5521C19.6731 30.3296 19.6208 30.1071 19.5857 29.8811C19.5686 29.7711 19.6438 29.6681 19.7538 29.651Z" fill="#27AF99"/>
<path d="M14.4781 21.2026C14.5056 21.0947 14.4404 20.9851 14.3325 20.9577C14.2247 20.9302 14.1151 20.9954 14.0876 21.1033C13.8511 22.0334 13.9777 22.9063 14.6963 23.7057C15.1243 24.1816 15.5584 24.4949 16.0036 24.8162C16.6699 25.297 17.2933 25.8139 17.8289 26.4415C18.4794 27.2035 18.9455 28.0151 19.2483 28.9153C19.2837 29.0207 19.398 29.0775 19.5034 29.042C19.6089 29.0065 19.6656 28.8923 19.6302 28.7868C19.3101 27.835 18.8173 26.9787 18.1354 26.1799C17.5788 25.5278 16.9317 24.9894 16.2395 24.4895C15.7925 24.1666 15.3934 23.8784 14.996 23.4363C14.3802 22.7514 14.2697 22.0224 14.4781 21.2026Z" fill="#27AF99"/>
<path d="M14.5897 20.1505C15.0974 19.4648 15.9072 19.02 16.758 18.9758C18.2776 18.897 19.5617 20.0901 20.6024 21.057L20.6554 21.1062C21.9971 22.3523 23.0411 23.7956 23.9479 25.3724C24.0033 25.4688 23.9701 25.592 23.8737 25.6474C23.7772 25.7029 23.6541 25.6697 23.5986 25.5732C22.7054 24.0201 21.6849 22.6123 20.3812 21.4015C20.338 21.3614 20.2943 21.3207 20.2501 21.2795L20.2494 21.2789C19.3105 20.4038 18.1346 19.3079 16.7788 19.3782C16.0515 19.4159 15.3515 19.7987 14.9135 20.3903C14.8472 20.4797 14.7211 20.4985 14.6317 20.4323C14.5422 20.366 14.5234 20.2399 14.5897 20.1505Z" fill="#27AF99"/>
<path d="M24.4063 26.3082C24.3547 26.2097 24.2329 26.1717 24.1343 26.2233C24.0358 26.275 23.9978 26.3968 24.0495 26.4953C24.2788 26.9325 24.4279 27.3791 24.5167 27.8338C24.5381 27.943 24.6439 28.0143 24.7531 27.9929C24.8623 27.9716 24.9335 27.8658 24.9122 27.7566C24.8164 27.2665 24.6551 26.7825 24.4063 26.3082Z" fill="#27AF99"/>
<path d="M21.7191 24.7927C21.81 24.7286 21.9357 24.7503 21.9999 24.8412C22.9333 26.1641 23.5726 27.5177 23.8916 28.9034C23.9165 29.0118 23.8489 29.12 23.7404 29.1449C23.632 29.1699 23.5239 29.1022 23.4989 28.9938C23.1937 27.6676 22.5795 26.3615 21.6707 25.0735C21.6065 24.9826 21.6282 24.8569 21.7191 24.7927Z" fill="#27AF99"/>
<path d="M17.9382 20.6491C17.3353 20.1875 16.4773 20.1912 15.8991 20.7111C15.116 21.4151 15.2762 22.6983 16.13 23.2586C17.6229 24.2603 18.7999 25.4613 19.6598 26.8639L19.6605 26.8649C20.4393 28.1183 20.9434 29.4224 21.1797 30.6991C21.2 30.8085 21.3051 30.8808 21.4145 30.8605C21.5239 30.8403 21.5962 30.7352 21.5759 30.6258C21.33 29.2968 20.8065 27.946 20.003 26.6528C19.1098 25.1961 17.8902 23.9543 16.3536 22.9234L16.3518 22.9222C15.7127 22.5034 15.5791 21.5406 16.1685 21.0107C16.5938 20.6284 17.2342 20.6184 17.6921 20.9682C19.0473 22.0371 20.2154 23.1079 21.0425 24.1906C21.1101 24.279 21.2365 24.2959 21.3249 24.2284C21.4133 24.1608 21.4302 24.0344 21.3627 23.946C20.5054 22.8238 19.3066 21.7283 17.9404 20.6509C17.9397 20.6503 17.9389 20.6497 17.9382 20.6491Z" fill="#27AF99"/>
<path d="M22.1661 28.5813C22.2737 28.553 22.3839 28.6172 22.4123 28.7248L22.7098 29.8542C22.7382 29.9618 22.6739 30.072 22.5663 30.1004C22.4587 30.1287 22.3485 30.0645 22.3202 29.9569L22.0227 28.8274C21.9943 28.7199 22.0586 28.6096 22.1661 28.5813Z" fill="#27AF99"/>
<path d="M17.021 21.7349C16.9297 21.6714 16.8041 21.6939 16.7406 21.7852C16.677 21.8766 16.6996 22.0021 16.7909 22.0657C19.2296 23.7621 20.858 25.713 21.6889 27.875C21.7288 27.9788 21.8453 28.0307 21.9492 27.9908C22.0531 27.9508 22.1049 27.8343 22.065 27.7304C21.1986 25.4762 19.5092 23.4658 17.021 21.7349Z" fill="#27AF99"/>
</g>
<defs>
<linearGradient id="paint0_linear_153_900" x1="107.019" y1="30.6716" x2="131.435" y2="56.0465" gradientUnits="userSpaceOnUse">
<stop stop-color="#60E86E"/>
<stop offset="1" stop-color="#21AA9E"/>
</linearGradient>
<linearGradient id="paint1_linear_153_900" x1="21.7091" y1="24.5983" x2="33.7255" y2="33.9335" gradientUnits="userSpaceOnUse">
<stop stop-color="#60E86E"/>
<stop offset="1" stop-color="#21AA9E"/>
</linearGradient>
<linearGradient id="paint2_linear_153_900" x1="25.3558" y1="26.4687" x2="43.5959" y2="39.8042" gradientUnits="userSpaceOnUse">
<stop stop-color="#60E86E"/>
<stop offset="1" stop-color="#21AA9E"/>
</linearGradient>
</defs>
</svg>
