<svg width="199" height="499" viewBox="0 0 199 499" fill="none" xmlns="http://www.w3.org/2000/svg">
<rect x="51.0141" y="392.387" width="134.406" height="106.471" rx="10.2781" transform="rotate(-7.71816 51.0141 392.387)" fill="white" stroke="#E9EDF7" stroke-width="0.527083"/>
<circle opacity="0.1" cx="76.8137" cy="412.029" r="10.5417" transform="rotate(-7.71816 76.8137 412.029)" fill="#EA79BA"/>
<path d="M80.1406 10.2543L79.9317 10.2789L77.9271 8.95128C77.7669 8.84523 77.5371 8.87233 77.41 9.01225C77.2881 9.15156 77.3192 9.35148 77.4801 9.46208L78.8976 10.4008L73.8207 10.9994L74.8999 9.76628C75.0218 9.62697 74.9906 9.42705 74.8298 9.31645C74.6696 9.2104 74.4398 9.2375 74.3127 9.37742L72.7918 11.1207L72.5829 11.1453C72.1128 11.2008 71.1361 11.3159 71.3173 12.4791C71.3859 12.9199 71.5357 13.1983 71.7848 13.3633C71.9279 13.4621 72.0885 13.5033 72.2554 13.516C72.4118 13.53 72.5744 13.5154 72.7311 13.497L80.712 12.556C80.8739 12.5369 81.024 12.51 81.166 12.4655C81.5906 12.3229 81.8824 12.0109 81.7634 11.2475C81.5822 10.0843 80.6055 10.1995 80.1406 10.2543Z" fill="#EA79BA"/>
<path d="M80.496 13.1829L73.0896 14.0561C72.7658 14.0943 72.5592 14.3731 72.6547 14.6441L73.4572 16.9279C73.7252 17.6921 74.2571 18.5456 75.9964 18.3406L78.9266 17.9951C80.6867 17.7876 80.8805 16.9827 80.9347 16.1018L81.0921 13.6632C81.1108 13.3741 80.825 13.1441 80.496 13.1829ZM76.5443 16.6333C76.5719 16.8105 76.4319 16.9705 76.2334 16.9939C76.0297 17.0179 75.8459 16.8961 75.8182 16.7189L75.5846 15.2195C75.5578 15.0468 75.697 14.8823 75.9007 14.8583C76.0992 14.8349 76.2838 14.9612 76.3107 15.1339L76.5443 16.6333ZM78.7797 16.3698C78.8073 16.547 78.6674 16.7069 78.4637 16.7309C78.2652 16.7543 78.0761 16.6332 78.0485 16.456L77.8149 14.9565C77.788 14.7839 77.9325 14.6188 78.131 14.5954C78.3347 14.5714 78.5192 14.6977 78.5461 14.8703L78.7797 16.3698Z" fill="#EA79BA"/>
<path d="M95.3553 406.422L99.5755 405.85L99.6752 406.585L97.9453 406.819L98.6384 411.934L97.8696 412.038L97.1765 406.924L95.4549 407.157L95.3553 406.422ZM103.759 410.704C103.393 411.185 102.9 411.467 102.282 411.551C101.663 411.635 101.114 411.493 100.633 411.127C100.152 410.761 99.87 410.269 99.7862 409.651C99.7024 409.032 99.8435 408.483 100.209 408.002C100.576 407.521 101.068 407.239 101.686 407.155C102.305 407.071 102.854 407.212 103.335 407.578C103.822 407.949 104.107 408.441 104.19 409.054C104.273 409.667 104.129 410.217 103.759 410.704ZM102.186 410.84C102.603 410.784 102.935 410.594 103.181 410.272C103.426 409.949 103.521 409.576 103.463 409.152C103.406 408.729 103.216 408.394 102.893 408.149C102.571 407.903 102.2 407.809 101.782 407.865C101.37 407.921 101.041 408.111 100.796 408.433C100.55 408.756 100.456 409.129 100.513 409.552C100.571 409.976 100.761 410.31 101.083 410.556C101.406 410.801 101.773 410.896 102.186 410.84ZM106.948 406.553L107.043 407.255L105.931 407.405L106.238 409.67C106.266 409.876 106.325 410.018 106.415 410.097C106.51 410.169 106.641 410.197 106.809 410.18C106.976 410.157 107.182 410.124 107.425 410.079L107.514 410.731C106.884 410.901 106.409 410.912 106.088 410.763C105.773 410.612 105.581 410.281 105.511 409.768L105.204 407.504L104.377 407.616L104.282 406.914L105.109 406.802L104.98 405.849L105.678 405.533L105.836 406.703L106.948 406.553ZM111.153 406.715L111.056 405.996L111.783 405.897L112.349 410.076L111.622 410.174L111.525 409.456C111.243 410.055 110.754 410.403 110.057 410.497C109.467 410.577 108.94 410.433 108.475 410.065C108.005 409.691 107.728 409.198 107.645 408.586C107.563 407.978 107.699 407.432 108.053 406.947C108.407 406.463 108.877 406.181 109.462 406.101C110.158 406.007 110.722 406.211 111.153 406.715ZM110.054 409.783C110.478 409.725 110.812 409.535 111.058 409.212C111.302 408.879 111.396 408.503 111.339 408.085C111.282 407.662 111.092 407.327 110.769 407.081C110.446 406.83 110.072 406.733 109.649 406.791C109.231 406.847 108.9 407.04 108.655 407.368C108.409 407.691 108.315 408.064 108.372 408.487C108.429 408.905 108.619 409.242 108.943 409.499C109.266 409.745 109.636 409.839 110.054 409.783ZM114.178 409.828L113.451 409.926L112.624 403.826L113.351 403.727L114.178 409.828ZM119.355 409.237C118.809 409.311 118.324 409.249 117.9 409.051C117.481 408.847 117.163 408.53 116.945 408.1L117.562 407.625C117.881 408.302 118.45 408.585 119.268 408.474C119.664 408.421 119.957 408.299 120.147 408.108C120.342 407.917 120.421 407.683 120.383 407.404C120.346 407.131 120.212 406.936 119.98 406.82C119.774 406.718 119.4 406.618 118.859 406.521L118.274 406.413C118.145 406.38 117.974 406.329 117.76 406.262C117.552 406.188 117.396 406.107 117.293 406.019C117.012 405.784 116.845 405.475 116.793 405.091C116.723 404.578 116.847 404.153 117.165 403.815C117.48 403.466 117.895 403.256 118.407 403.187C118.864 403.125 119.281 403.185 119.657 403.366C120.033 403.548 120.335 403.825 120.561 404.197L119.96 404.661C119.628 404.094 119.144 403.853 118.509 403.939C118.192 403.982 117.946 404.095 117.772 404.277C117.598 404.46 117.529 404.684 117.566 404.952C117.6 405.208 117.719 405.391 117.921 405.499C118.129 405.613 118.465 405.709 118.93 405.788L119.287 405.85C119.487 405.897 119.595 405.922 119.612 405.925C119.8 405.968 120.007 406.034 120.235 406.122C120.397 406.185 120.564 406.293 120.738 406.445C120.96 406.614 121.097 406.893 121.15 407.283C121.219 407.796 121.088 408.23 120.756 408.587C120.418 408.94 119.951 409.156 119.355 409.237ZM125.296 404.798L125.199 404.079L125.926 403.98L126.492 408.159L125.765 408.257L125.668 407.539C125.386 408.139 124.897 408.486 124.201 408.58C123.61 408.66 123.083 408.516 122.619 408.148C122.148 407.775 121.871 407.282 121.788 406.669C121.706 406.062 121.842 405.516 122.196 405.031C122.55 404.546 123.02 404.264 123.605 404.184C124.301 404.09 124.865 404.294 125.296 404.798ZM124.197 407.866C124.621 407.808 124.955 407.618 125.201 407.296C125.445 406.962 125.539 406.586 125.482 406.168C125.425 405.745 125.235 405.41 124.912 405.165C124.589 404.913 124.215 404.817 123.792 404.874C123.374 404.931 123.043 405.123 122.798 405.451C122.552 405.774 122.458 406.147 122.515 406.57C122.572 406.988 122.762 407.325 123.087 407.582C123.409 407.828 123.78 407.922 124.197 407.866ZM128.321 407.911L127.594 408.01L126.767 401.909L127.494 401.811L128.321 407.911ZM133.204 405.462L129.702 405.937C129.824 406.295 130.034 406.561 130.33 406.737C130.625 406.907 130.973 406.964 131.374 406.91C131.926 406.835 132.299 406.578 132.495 406.137L133.161 406.404C132.834 407.09 132.264 407.487 131.451 407.598C130.793 407.687 130.225 407.554 129.745 407.199C129.276 406.831 128.998 406.333 128.913 405.703C128.827 405.068 128.959 404.517 129.31 404.049C129.66 403.577 130.158 403.296 130.805 403.209C131.417 403.126 131.946 403.275 132.389 403.658C132.836 404.028 133.101 404.52 133.185 405.133C133.199 405.239 133.205 405.349 133.204 405.462ZM130.898 403.894C130.513 403.946 130.205 404.098 129.972 404.351C129.745 404.603 129.627 404.92 129.616 405.302L132.407 404.923C132.294 404.547 132.1 404.27 131.826 404.091C131.553 403.913 131.243 403.847 130.898 403.894ZM134.352 403.987C134.389 404.255 134.693 404.426 135.265 404.502C135.477 404.519 135.656 404.543 135.802 404.574C135.953 404.599 136.118 404.647 136.298 404.719C136.484 404.791 136.632 404.898 136.742 405.042C136.852 405.186 136.922 405.364 136.951 405.576C137.002 405.954 136.895 406.278 136.631 406.547C136.367 406.815 136.009 406.98 135.558 407.041C135.157 407.095 134.797 407.056 134.478 406.923C134.164 406.784 133.926 406.573 133.762 406.289L134.34 405.844C134.434 406.036 134.581 406.178 134.781 406.27C134.981 406.362 135.209 406.39 135.465 406.356C135.716 406.322 135.91 406.247 136.047 406.132C136.185 406.017 136.241 405.865 136.215 405.675C136.177 405.391 135.873 405.222 135.304 405.169C135.113 405.144 134.969 405.124 134.87 405.109C134.772 405.094 134.634 405.061 134.457 405.011C134.286 404.961 134.153 404.902 134.059 404.836C133.964 404.763 133.871 404.665 133.781 404.541C133.695 404.411 133.641 404.263 133.618 404.095C133.569 403.733 133.668 403.416 133.915 403.145C134.167 402.872 134.505 402.707 134.929 402.65C135.268 402.604 135.58 402.641 135.863 402.761C136.151 402.876 136.38 403.06 136.551 403.315L135.987 403.74C135.788 403.404 135.466 403.266 135.02 403.327C134.809 403.355 134.637 403.43 134.506 403.55C134.38 403.669 134.329 403.815 134.352 403.987Z" fill="#212227"/>
<path d="M79.5334 449.483C79.6509 450.35 79.4665 451.109 78.9803 451.76C78.4927 452.4 77.7918 452.841 76.8776 453.082L77.0666 454.477L76.0481 454.615L75.8613 453.236C74.9872 453.301 74.2136 453.166 73.5407 452.832C72.8677 452.498 72.3466 451.989 71.9773 451.305L73.4075 450.201C73.8859 451.062 74.6238 451.483 75.6213 451.465L75.1796 448.206C74.2345 447.983 73.4917 447.722 72.9512 447.423C72.2355 447.009 71.8133 446.327 71.6845 445.376C71.567 444.509 71.7632 443.759 72.2732 443.126C72.7741 442.505 73.4576 442.094 74.3238 441.891L74.1369 440.512L75.1554 440.374L75.3444 441.769C76.7592 441.769 77.8277 442.352 78.5498 443.52L77.1488 444.604C76.7852 443.962 76.2644 443.612 75.5865 443.555L76.007 446.658C76.4251 446.76 76.6893 446.826 76.7994 446.853C77.4602 447.019 77.9493 447.213 78.2667 447.436C79.0473 447.937 79.4695 448.619 79.5334 449.483ZM73.4865 445.132C73.5289 445.446 73.6583 445.694 73.8747 445.877C74.091 446.061 74.4439 446.231 74.9332 446.388L74.5637 443.662C74.1857 443.777 73.8974 443.965 73.6987 444.226C73.5105 444.485 73.4397 444.787 73.4865 445.132ZM76.2512 448.46L76.6377 451.311C77.0337 451.173 77.3245 450.963 77.5099 450.683C77.7057 450.401 77.7803 450.087 77.7335 449.743C77.6882 449.408 77.5515 449.145 77.3233 448.953C77.0951 448.76 76.7377 448.596 76.2512 448.46ZM82.4127 445.199L83.7916 445.012C84.8363 444.871 85.7614 445.064 86.5672 445.593C87.3715 446.112 87.848 446.92 87.9966 448.017C88.1453 449.113 87.8912 450.026 87.2345 450.753C86.5882 451.479 85.7219 451.915 84.6355 452.062C83.7475 452.183 82.9469 452.084 82.2336 451.766C81.5203 451.447 80.9716 450.931 80.5876 450.218L82.0179 449.114C82.4553 450.065 83.2485 450.463 84.3976 450.308C85.0139 450.224 85.4837 450.001 85.8068 449.638C86.139 449.263 86.2683 448.804 86.1947 448.261C86.1224 447.728 85.8823 447.33 85.4742 447.066C85.0647 446.792 84.557 446.696 83.9511 446.778L80.7546 447.211L80.3792 441.262L86.4902 440.434L86.7196 442.126L82.2695 442.729L82.4127 445.199ZM87.3432 441.355L90.0883 439.946L91.6552 439.734L93.1417 450.702L91.3398 450.946L90.1144 441.905L87.99 442.831L87.3432 441.355ZM100.498 440.099L98.6723 443.346C99.5126 443.424 100.211 443.712 100.768 444.211C101.334 444.698 101.672 445.344 101.781 446.148C101.929 447.245 101.675 448.157 101.019 448.885C100.372 449.611 99.506 450.047 98.4196 450.194C97.563 450.31 96.7795 450.22 96.069 449.922C95.3571 449.615 94.8106 449.114 94.4294 448.421L95.8439 447.32C96.2952 448.216 97.0745 448.589 98.1818 448.439C98.8085 448.354 99.2835 448.13 99.6066 447.768C99.9284 447.394 100.052 446.936 99.9788 446.393C99.9052 445.849 99.6643 445.446 99.2562 445.182C98.8481 444.918 98.3307 444.829 97.7039 444.914L97.2965 444.969L96.4292 443.986L98.3727 440.547L93.7816 441.169L93.5522 439.477L100.29 438.563L100.498 440.099ZM103.676 447.36L105.557 447.105L105.012 451.327L103.602 451.519L103.676 447.36ZM114.065 446.494C113.453 447.63 112.468 448.29 111.11 448.474C109.762 448.657 108.632 448.284 107.719 447.354C106.826 446.422 106.264 445.094 106.03 443.371C105.796 441.647 105.986 440.217 106.597 439.081C107.23 437.942 108.221 437.281 109.568 437.099C110.926 436.915 112.051 437.289 112.944 438.221C113.845 439.141 114.413 440.468 114.648 442.203C114.883 443.937 114.689 445.367 114.065 446.494ZM110.872 446.719C111.687 446.609 112.262 446.185 112.599 445.448C112.935 444.711 113.017 443.711 112.846 442.447C112.675 441.183 112.329 440.24 111.809 439.619C111.288 438.998 110.621 438.743 109.806 438.854C109.002 438.963 108.426 439.386 108.079 440.125C107.743 440.862 107.661 441.862 107.832 443.126C108.003 444.39 108.349 445.333 108.869 445.954C109.4 446.573 110.068 446.829 110.872 446.719ZM119.103 439.764L119.306 439.736C120.456 439.58 121.433 439.804 122.238 440.408C123.052 441 123.534 441.849 123.684 442.957C123.833 444.053 123.595 445.006 122.971 445.814C122.343 446.601 121.46 447.072 120.322 447.226C119.172 447.382 118.191 447.164 117.377 446.572C116.56 445.959 116.077 445.105 115.928 444.008C115.815 443.172 115.934 442.406 116.287 441.709L119.058 436.02L121.111 435.742L119.103 439.764ZM120.09 445.518C120.696 445.436 121.167 445.186 121.504 444.768C121.84 444.339 121.966 443.817 121.882 443.201C121.799 442.584 121.539 442.12 121.103 441.806C120.665 441.483 120.144 441.362 119.538 441.444C118.911 441.529 118.43 441.786 118.094 442.214C117.768 442.631 117.646 443.147 117.73 443.763C117.814 444.38 118.069 444.851 118.496 445.176C118.932 445.489 119.463 445.603 120.09 445.518ZM130.41 439.843C131.566 440.293 132.225 441.108 132.385 442.288C132.519 443.28 132.276 444.116 131.656 444.796C131.045 445.475 130.155 445.893 128.985 446.052C127.815 446.21 126.842 446.05 126.064 445.57C125.286 445.09 124.828 444.344 124.691 443.331C124.615 442.767 124.686 442.236 124.906 441.738C125.124 441.229 125.47 440.8 125.944 440.448C125.045 440.017 124.528 439.3 124.392 438.297C124.256 437.294 124.485 436.476 125.08 435.842C125.684 435.196 126.472 434.808 127.444 434.676C128.405 434.546 129.262 434.711 130.016 435.173C130.77 435.635 131.215 436.362 131.349 437.354C131.484 438.346 131.17 439.176 130.41 439.843ZM127.675 436.384C127.174 436.452 126.785 436.643 126.508 436.957C126.241 437.259 126.139 437.651 126.204 438.131C126.267 438.591 126.474 438.94 126.825 439.18C127.176 439.409 127.596 439.49 128.087 439.424C128.568 439.359 128.946 439.169 129.223 438.855C129.508 438.529 129.62 438.136 129.558 437.677C129.493 437.196 129.286 436.846 128.937 436.628C128.587 436.399 128.166 436.317 127.675 436.384ZM128.754 444.344C129.37 444.26 129.841 444.042 130.165 443.69C130.5 443.336 130.632 442.893 130.559 442.36C130.487 441.827 130.243 441.435 129.825 441.183C129.419 440.929 128.907 440.844 128.291 440.928C127.664 441.013 127.183 441.232 126.848 441.586C126.524 441.939 126.398 442.381 126.47 442.914C126.542 443.447 126.781 443.84 127.188 444.093C127.605 444.345 128.127 444.429 128.754 444.344ZM135.051 442.82C135.374 442.776 135.667 442.854 135.928 443.052C136.189 443.251 136.341 443.512 136.385 443.836C136.429 444.16 136.352 444.452 136.153 444.713C135.954 444.974 135.693 445.127 135.369 445.171C135.045 445.215 134.753 445.137 134.492 444.938C134.231 444.74 134.079 444.479 134.035 444.155C133.991 443.831 134.063 443.539 134.251 443.28C134.45 443.019 134.716 442.866 135.051 442.82ZM143.372 436.331C143.485 437.167 143.365 437.933 143.013 438.63L140.257 444.317L138.189 444.597L140.197 440.575L140.009 440.6C138.87 440.755 137.889 440.537 137.064 439.946C136.248 439.344 135.765 438.489 135.615 437.382C135.465 436.275 135.704 435.328 136.331 434.541C136.968 433.742 137.855 433.265 138.994 433.111C140.143 432.955 141.12 433.179 141.925 433.782C142.739 434.374 143.221 435.224 143.372 436.331ZM137.417 437.138C137.498 437.733 137.758 438.198 138.197 438.532C138.645 438.855 139.171 438.975 139.777 438.893C140.383 438.81 140.855 438.56 141.192 438.142C141.527 437.714 141.653 437.192 141.57 436.575C141.486 435.959 141.226 435.494 140.79 435.181C140.353 434.857 139.831 434.736 139.225 434.819C138.619 434.901 138.143 435.157 137.797 435.586C137.46 436.004 137.334 436.522 137.417 437.138ZM150.624 437.103C151.78 437.553 152.439 438.368 152.599 439.548C152.733 440.541 152.49 441.377 151.87 442.057C151.259 442.735 150.369 443.154 149.199 443.312C148.029 443.471 147.055 443.31 146.278 442.831C145.5 442.351 145.042 441.604 144.905 440.591C144.829 440.027 144.9 439.496 145.12 438.998C145.338 438.49 145.684 438.06 146.158 437.709C145.259 437.277 144.742 436.56 144.606 435.557C144.47 434.555 144.699 433.736 145.294 433.102C145.898 432.457 146.686 432.068 147.658 431.936C148.619 431.806 149.476 431.972 150.23 432.433C150.984 432.895 151.428 433.622 151.563 434.614C151.697 435.607 151.384 436.436 150.624 437.103ZM147.889 433.644C147.388 433.712 146.999 433.903 146.722 434.217C146.455 434.52 146.353 434.911 146.418 435.391C146.481 435.851 146.688 436.201 147.039 436.44C147.389 436.669 147.81 436.751 148.301 436.684C148.782 436.619 149.16 436.429 149.437 436.115C149.722 435.789 149.834 435.397 149.772 434.937C149.707 434.457 149.5 434.107 149.151 433.888C148.801 433.659 148.38 433.578 147.889 433.644ZM148.968 441.604C149.584 441.521 150.055 441.303 150.379 440.95C150.714 440.596 150.846 440.153 150.773 439.62C150.701 439.088 150.456 438.695 150.039 438.443C149.633 438.19 149.121 438.105 148.505 438.188C147.878 438.273 147.397 438.493 147.062 438.847C146.738 439.199 146.611 439.642 146.684 440.175C146.756 440.707 146.995 441.1 147.402 441.354C147.819 441.606 148.341 441.689 148.968 441.604Z" fill="#212227"/>
<path d="M87.1334 478.113L88.3692 477.946L88.4703 478.692L87.2345 478.859L87.402 480.095L86.6561 480.196L86.4886 478.96L85.2529 479.128L85.1518 478.382L86.3876 478.214L86.2201 476.979L86.9659 476.878L87.1334 478.113ZM88.6331 476.168L89.9141 475.51L90.6454 475.411L91.3391 480.529L90.4982 480.643L89.9264 476.424L88.935 476.856L88.6331 476.168ZM95.4857 479.967L92.1147 480.424L92.0255 479.766L93.563 477.704C93.938 477.211 94.1041 476.806 94.0611 476.489C94.0281 476.246 93.9289 476.063 93.7635 475.941C93.5981 475.82 93.3984 475.775 93.1644 475.807C92.7354 475.865 92.4473 476.12 92.3 476.572L91.5342 476.251C91.6446 475.893 91.8342 475.607 92.1029 475.392C92.3709 475.172 92.6853 475.038 93.0461 474.989C93.4994 474.927 93.9037 475.016 94.2589 475.256C94.6196 475.5 94.8327 475.864 94.8981 476.346C94.9681 476.863 94.7534 477.458 94.2539 478.131L93.2551 479.443L95.3757 479.156L95.4857 479.967ZM97.4391 474.736C97.6992 474.934 97.8514 475.196 97.8957 475.523C97.94 475.849 97.8631 476.143 97.665 476.403C97.4712 476.658 97.2036 476.808 96.8624 476.854C96.5162 476.901 96.2159 476.828 95.9612 476.634C95.7011 476.436 95.5488 476.174 95.5046 475.847C95.461 475.525 95.5382 475.234 95.7363 474.974C95.9343 474.714 96.204 474.561 96.5452 474.514C96.8865 474.468 97.1844 474.542 97.4391 474.736ZM96.7678 476.212C96.9238 476.191 97.044 476.125 97.1283 476.014C97.2119 475.899 97.2435 475.765 97.223 475.614C97.2025 475.463 97.1366 475.343 97.0252 475.254C96.9138 475.164 96.7801 475.13 96.6241 475.152C96.473 475.172 96.3557 475.24 96.272 475.356C96.1884 475.471 96.1568 475.605 96.1773 475.756C96.1971 475.902 96.2627 476.02 96.3741 476.109C96.4903 476.197 96.6216 476.232 96.7678 476.212ZM96.8085 479.259L96.382 479.079L99.2445 474.871L99.6701 475.044L96.8085 479.259ZM99.6037 479.499C99.2576 479.546 98.9572 479.472 98.7025 479.278C98.4424 479.08 98.2902 478.818 98.2459 478.491C98.2023 478.17 98.2795 477.879 98.4776 477.618C98.6756 477.358 98.9453 477.205 99.2865 477.159C99.6229 477.113 99.9212 477.189 100.181 477.387C100.442 477.586 100.593 477.845 100.637 478.167C100.681 478.494 100.604 478.787 100.406 479.047C100.212 479.302 99.9449 479.452 99.6037 479.499ZM99.5091 478.856C99.6651 478.835 99.7853 478.769 99.8696 478.658C99.9532 478.543 99.9848 478.41 99.9643 478.258C99.9438 478.107 99.8779 477.987 99.7665 477.898C99.6551 477.809 99.5214 477.775 99.3654 477.796C99.2143 477.816 99.097 477.884 99.0133 478C98.9297 478.116 98.8981 478.249 98.9186 478.4C98.9384 478.546 99.004 478.664 99.1154 478.753C99.2317 478.842 99.3629 478.876 99.5091 478.856Z" fill="#23C581"/>
<path d="M80.8332 71.7152L78.7332 70.3244L77.1344 72.1513" stroke="#23C581" stroke-width="0.790624" stroke-miterlimit="10" stroke-linecap="round" stroke-linejoin="round"/>
<path d="M79.4354 74.8299L78.7404 70.3691" stroke="#23C581" stroke-width="0.790624" stroke-miterlimit="10" stroke-linecap="round" stroke-linejoin="round"/>
<path d="M107.464 477.875C107.138 478.291 106.709 478.535 106.178 478.607C105.637 478.681 105.156 478.56 104.736 478.244C104.315 477.924 104.068 477.493 103.995 476.952C103.922 476.411 104.045 475.933 104.366 475.517C104.687 475.096 105.117 474.849 105.658 474.776C106.195 474.703 106.673 474.827 107.094 475.147C107.519 475.462 107.768 475.89 107.841 476.431C107.914 476.967 107.788 477.448 107.464 477.875ZM105.034 477.861C105.35 478.102 105.71 478.194 106.114 478.139C106.519 478.085 106.841 477.899 107.082 477.584C107.32 477.259 107.413 476.896 107.359 476.496C107.304 476.092 107.119 475.769 106.803 475.529C106.487 475.284 106.127 475.189 105.722 475.244C105.317 475.299 104.995 475.486 104.756 475.807C104.515 476.122 104.423 476.482 104.478 476.887C104.532 477.287 104.717 477.611 105.034 477.861ZM110.1 474.174C110.539 474.114 110.906 474.204 111.201 474.442C111.496 474.675 111.675 475.02 111.737 475.479L112.041 477.723L111.558 477.789L111.254 475.544C111.21 475.217 111.088 474.976 110.888 474.819C110.693 474.662 110.437 474.605 110.12 474.648C109.754 474.697 109.48 474.851 109.296 475.109C109.118 475.367 109.059 475.72 109.12 476.168L109.379 478.084L108.897 478.15L108.401 474.493L108.884 474.428L108.961 474.998C109.175 474.523 109.554 474.248 110.1 474.174ZM116.244 473.43L116.308 473.898L115.255 474.041L115.555 476.257C115.582 476.457 115.641 476.595 115.731 476.672C115.82 476.745 115.943 476.773 116.099 476.756C116.255 476.735 116.45 476.704 116.682 476.662L116.74 477.087C116.229 477.235 115.836 477.251 115.562 477.134C115.293 477.012 115.129 476.741 115.073 476.322L114.772 474.107L114.004 474.211L113.941 473.743L114.709 473.639L114.59 472.761L115.053 472.549L115.191 473.573L116.244 473.43ZM118.748 473.002C119.187 472.942 119.554 473.032 119.849 473.27C120.144 473.503 120.322 473.848 120.384 474.307L120.689 476.551L120.206 476.617L119.902 474.372C119.857 474.045 119.735 473.804 119.535 473.647C119.34 473.49 119.084 473.433 118.768 473.476C118.402 473.525 118.127 473.679 117.944 473.937C117.765 474.195 117.706 474.548 117.767 474.996L118.027 476.912L117.544 476.978L116.851 471.859L117.333 471.794L117.609 473.826C117.822 473.351 118.202 473.076 118.748 473.002ZM121.566 471.562C121.579 471.66 121.556 471.747 121.497 471.825C121.438 471.902 121.36 471.948 121.262 471.961C121.165 471.974 121.078 471.951 121 471.892C120.923 471.833 120.877 471.755 120.864 471.658C120.851 471.56 120.874 471.473 120.933 471.395C120.992 471.318 121.07 471.272 121.167 471.259C121.265 471.246 121.352 471.269 121.43 471.328C121.507 471.387 121.553 471.465 121.566 471.562ZM122.104 476.36L121.622 476.425L121.126 472.769L121.609 472.703L122.104 476.36ZM123.143 473.471C123.181 473.754 123.46 473.927 123.98 473.99C124.126 474.005 124.222 474.017 124.268 474.026C124.313 474.03 124.402 474.045 124.535 474.072C124.672 474.093 124.767 474.115 124.819 474.137C124.877 474.159 124.956 474.196 125.058 474.247C125.158 474.293 125.232 474.345 125.28 474.403C125.327 474.456 125.374 474.529 125.421 474.622C125.468 474.71 125.499 474.807 125.513 474.915C125.555 475.227 125.465 475.497 125.243 475.726C125.031 475.953 124.727 476.093 124.332 476.147C123.991 476.193 123.686 476.158 123.417 476.04C123.147 475.918 122.944 475.737 122.807 475.497L123.184 475.201C123.278 475.381 123.42 475.516 123.611 475.604C123.806 475.687 124.025 475.712 124.269 475.679C124.517 475.645 124.713 475.569 124.856 475.45C124.999 475.332 125.057 475.175 125.03 474.98C124.992 474.697 124.713 474.524 124.193 474.461C124.047 474.446 123.952 474.436 123.906 474.432C123.86 474.424 123.769 474.409 123.632 474.388C123.499 474.361 123.404 474.337 123.347 474.315C123.294 474.292 123.217 474.258 123.117 474.212C123.016 474.161 122.942 474.109 122.895 474.056C122.847 473.998 122.8 473.925 122.753 473.837C122.706 473.744 122.675 473.644 122.66 473.536C122.62 473.239 122.703 472.975 122.91 472.743C123.127 472.51 123.413 472.369 123.769 472.321C124.062 472.282 124.329 472.312 124.571 472.414C124.818 472.514 125.011 472.674 125.15 472.894L124.779 473.182C124.597 472.859 124.281 472.728 123.833 472.789C123.613 472.819 123.437 472.895 123.305 473.017C123.173 473.139 123.119 473.291 123.143 473.471ZM131.695 474.427L132.184 471.27L132.681 471.203L132.05 475.012L131.524 475.083L130.181 472.264L129.637 475.339L129.111 475.41L127.489 471.906L127.986 471.839L129.297 474.752L129.844 471.587L130.326 471.522L131.695 474.427ZM134.943 470.807C135.489 470.733 135.951 470.866 136.33 471.207C136.718 471.542 136.947 471.97 137.018 472.492C137.021 472.516 137.027 472.592 137.034 472.72L133.824 473.155C133.922 473.514 134.118 473.786 134.411 473.969C134.704 474.153 135.048 474.218 135.443 474.165C135.999 474.089 136.363 473.829 136.536 473.383L136.994 473.575C136.868 473.86 136.675 474.097 136.412 474.286C136.154 474.47 135.85 474.586 135.499 474.634C134.924 474.712 134.431 474.595 134.022 474.283C133.612 473.971 133.37 473.537 133.294 472.981C133.22 472.43 133.336 471.951 133.643 471.542C133.949 471.128 134.382 470.883 134.943 470.807ZM135.006 471.275C134.626 471.326 134.322 471.482 134.094 471.741C133.871 472 133.76 472.315 133.761 472.687L136.488 472.318C136.382 471.935 136.192 471.655 135.92 471.479C135.638 471.299 135.333 471.231 135.006 471.275ZM139.213 470.228C139.759 470.154 140.222 470.288 140.601 470.628C140.988 470.963 141.218 471.391 141.288 471.913C141.292 471.937 141.297 472.013 141.305 472.141L138.094 472.577C138.193 472.936 138.388 473.207 138.681 473.391C138.974 473.574 139.318 473.639 139.713 473.586C140.269 473.511 140.633 473.25 140.806 472.805L141.264 472.996C141.139 473.281 140.945 473.518 140.683 473.708C140.425 473.892 140.12 474.007 139.769 474.055C139.194 474.133 138.702 474.016 138.292 473.704C137.882 473.392 137.64 472.958 137.564 472.403C137.49 471.852 137.606 471.372 137.913 470.963C138.219 470.549 138.653 470.304 139.213 470.228ZM139.277 470.696C138.897 470.748 138.592 470.903 138.364 471.162C138.141 471.421 138.03 471.736 138.031 472.109L140.758 471.739C140.652 471.356 140.463 471.077 140.191 470.9C139.908 470.72 139.603 470.652 139.277 470.696ZM143.039 471.586L145.256 473.222L144.613 473.309L142.546 471.795L142.784 473.557L142.302 473.622L141.608 468.504L142.091 468.438L142.508 471.517L144.029 469.665L144.687 469.576L143.039 471.586Z" fill="#707B81"/>
</svg>
