<svg width="188" height="496" viewBox="0 0 188 496" fill="none" xmlns="http://www.w3.org/2000/svg">
<rect x="25.8282" y="379.322" width="133.879" height="106.471" rx="10.2781" transform="rotate(4.18945 25.8282 379.322)" fill="white" stroke="#E9EDF7" stroke-width="0.527083"/>
<circle opacity="0.15" cx="47.021" cy="403.862" r="10.5417" transform="rotate(4.18945 47.021 403.862)" fill="#6DACE7"/>
<path d="M49.4212 3.755C49.3734 4.32205 48.8036 4.75009 48.1518 4.70856L46.3119 4.59132C45.986 4.57055 45.7012 4.43746 45.5015 4.23624C45.3017 4.03501 45.1919 3.77055 45.2158 3.48702C45.2635 2.91997 45.8333 2.49193 46.4852 2.53347L48.325 2.65071C48.6509 2.67148 48.9357 2.80456 49.1354 3.00579C49.3352 3.20701 49.445 3.47148 49.4212 3.755Z" fill="#6DACE7"/>
<path d="M50.8789 4.20655C50.7653 4.11196 50.6344 4.03465 50.4915 3.97497C50.3432 3.91495 50.1819 4.01042 50.1388 4.1456C49.8943 4.91619 49.0508 5.45553 48.0941 5.39456L46.2542 5.27732C45.7286 5.24382 45.2495 5.03399 44.9036 4.68552C44.6502 4.43031 44.4864 4.11643 44.4402 3.78706C44.4202 3.64786 44.2717 3.52806 44.1146 3.57322C43.4868 3.74929 43.0412 4.20824 42.9592 5.18229L42.5837 9.64096C42.4682 11.0129 43.3707 11.5301 44.5324 11.6041L48.7378 11.8721C49.8995 11.9462 50.879 11.5488 50.9945 10.1769L51.3699 5.71824C51.4327 4.97284 51.2347 4.50047 50.8789 4.20655ZM44.9078 7.14547L47.0105 7.27946C47.2261 7.2932 47.3917 7.46007 47.3759 7.64756C47.3601 7.83505 47.1683 7.97915 46.9528 7.96541L44.8501 7.83142C44.6345 7.81769 44.4689 7.65082 44.4847 7.46332C44.5005 7.27583 44.6923 7.13174 44.9078 7.14547ZM48.9014 9.9286L44.696 9.66062C44.4805 9.64689 44.3149 9.48002 44.3307 9.29252C44.3465 9.10503 44.5383 8.96094 44.7538 8.97467L48.9592 9.24265C49.1747 9.25638 49.3404 9.42325 49.3246 9.61075C49.3088 9.79824 49.117 9.94233 48.9014 9.9286Z" fill="#6DACE7"/>
<path d="M66.3196 402.203L70.567 402.515L70.5128 403.255L68.7718 403.127L68.3947 408.275L67.6209 408.218L67.998 403.07L66.2654 402.944L66.3196 402.203ZM73.6585 408.127C73.2011 408.522 72.6612 408.697 72.0388 408.651C71.4164 408.606 70.9078 408.354 70.5128 407.897C70.1179 407.44 69.9432 406.9 69.9888 406.277C70.0344 405.655 70.2859 405.146 70.7433 404.751C71.2006 404.356 71.7405 404.182 72.3629 404.227C72.9853 404.273 73.494 404.524 73.8889 404.982C74.289 405.445 74.4665 405.985 74.4213 406.602C74.3761 407.219 74.1219 407.727 73.6585 408.127ZM72.0912 407.936C72.5117 407.967 72.8755 407.85 73.1824 407.585C73.4893 407.32 73.6584 406.975 73.6896 406.548C73.7208 406.122 73.6039 405.756 73.3389 405.449C73.0739 405.142 72.7311 404.973 72.3105 404.942C71.8956 404.912 71.5347 405.029 71.2278 405.294C70.9209 405.559 70.7518 405.905 70.7206 406.331C70.6894 406.757 70.8063 407.124 71.0713 407.431C71.3363 407.737 71.6763 407.906 72.0912 407.936ZM77.6354 404.723L77.5836 405.43L76.465 405.348L76.298 407.627C76.2828 407.835 76.3112 407.986 76.3831 408.082C76.4611 408.172 76.5839 408.226 76.7517 408.244C76.92 408.256 77.1278 408.266 77.3754 408.273L77.3273 408.929C76.6763 408.966 76.2092 408.878 75.926 408.666C75.6484 408.454 75.5285 408.09 75.5663 407.574L75.7332 405.294L74.9006 405.233L74.9523 404.527L75.785 404.588L75.8552 403.629L76.603 403.464L76.5167 404.642L77.6354 404.723ZM81.7172 405.75L81.7702 405.026L82.5019 405.08L82.1939 409.285L81.4621 409.232L81.5151 408.508C81.1156 409.037 80.5654 409.276 79.8645 409.225C79.2701 409.181 78.7839 408.931 78.4058 408.475C78.0225 408.013 77.8534 407.474 77.8986 406.857C77.9434 406.246 78.189 405.739 78.6356 405.338C79.0821 404.937 79.5998 404.757 80.1886 404.801C80.8895 404.852 81.399 405.168 81.7172 405.75ZM80.0088 408.525C80.4349 408.556 80.8014 408.439 81.1083 408.174C81.4161 407.898 81.5854 407.55 81.6162 407.129C81.6474 406.703 81.5305 406.336 81.2655 406.029C81.0008 405.717 80.6555 405.545 80.2293 405.514C79.8088 405.483 79.4448 405.603 79.1375 405.874C78.8306 406.139 78.6615 406.484 78.6303 406.91C78.5995 407.331 78.7162 407.7 78.9804 408.018C79.2454 408.325 79.5882 408.494 80.0088 408.525ZM84.0343 409.42L83.3025 409.367L83.7523 403.227L84.484 403.28L84.0343 409.42ZM87.2334 406.695C87.2959 405.843 87.643 405.144 88.2749 404.598C88.9072 404.047 89.6495 403.802 90.5018 403.865C91.3541 403.927 92.0528 404.277 92.598 404.915C93.1493 405.547 93.3937 406.289 93.3313 407.142C93.2692 407.988 92.9193 408.687 92.2814 409.238C91.6491 409.789 90.9068 410.033 90.0545 409.971C89.2022 409.909 88.5034 409.559 87.9582 408.921C87.4134 408.278 87.1718 407.536 87.2334 406.695ZM92.549 407.084C92.5967 406.434 92.4179 405.874 92.0125 405.405C91.6188 404.93 91.0968 404.669 90.4463 404.622C89.8015 404.575 89.2442 404.756 88.7744 405.167C88.3102 405.579 88.0545 406.107 88.0072 406.752C87.9604 407.391 88.1364 407.951 88.5353 408.431C88.9407 408.9 89.4657 409.158 90.1106 409.206C90.761 409.253 91.3153 409.074 91.7735 408.668C92.2437 408.251 92.5022 407.723 92.549 407.084ZM95.0201 405.997L94.9683 406.703C95.2476 406.2 95.7041 405.971 96.3377 406.017L96.2816 406.783C95.924 406.74 95.6086 406.812 95.3355 407.001C95.0624 407.189 94.909 407.514 94.8753 407.973L94.712 410.202L93.9803 410.149L94.2883 405.943L95.0201 405.997ZM100.247 407.107L100.423 404.702L101.155 404.755L100.724 410.643L99.9922 410.589L100.045 409.866C99.6456 410.395 99.0954 410.633 98.3945 410.582C97.8002 410.538 97.3139 410.289 96.9358 409.832C96.5525 409.37 96.3834 408.831 96.4286 408.214C96.4734 407.603 96.7191 407.097 97.1656 406.695C97.6122 406.294 98.1298 406.115 98.7186 406.158C99.4195 406.209 99.929 406.526 100.247 407.107ZM98.5388 409.882C98.9649 409.913 99.3315 409.797 99.6384 409.532C99.9461 409.255 100.115 408.907 100.146 408.486C100.177 408.06 100.061 407.694 99.7955 407.387C99.5309 407.074 99.1855 406.902 98.7593 406.871C98.3388 406.84 97.9749 406.96 97.6676 407.231C97.3606 407.496 97.1916 407.842 97.1604 408.268C97.1296 408.688 97.2463 409.058 97.5104 409.376C97.7755 409.683 98.1182 409.851 98.5388 409.882ZM105.999 409.253L102.475 408.995C102.521 409.371 102.67 409.675 102.924 409.907C103.178 410.135 103.507 410.263 103.91 410.293C104.466 410.333 104.884 410.158 105.167 409.767L105.763 410.166C105.302 410.769 104.662 411.041 103.843 410.981C103.181 410.933 102.653 410.685 102.257 410.239C101.873 409.783 101.705 409.238 101.751 408.604C101.798 407.965 102.041 407.453 102.481 407.068C102.921 406.677 103.466 406.506 104.117 406.553C104.734 406.598 105.219 406.854 105.574 407.32C105.935 407.775 106.094 408.31 106.048 408.927C106.041 409.034 106.024 409.142 105.999 409.253ZM104.066 407.243C103.679 407.215 103.346 407.3 103.067 407.5C102.793 407.699 102.611 407.985 102.522 408.356L105.331 408.562C105.298 408.17 105.165 407.859 104.934 407.628C104.703 407.397 104.414 407.268 104.066 407.243ZM107.776 406.931L107.724 407.638C108.003 407.134 108.46 406.905 109.094 406.952L109.037 407.717C108.68 407.674 108.364 407.747 108.091 407.935C107.818 408.124 107.665 408.448 107.631 408.908L107.468 411.137L106.736 411.083L107.044 406.878L107.776 406.931ZM110.196 408.25C110.176 408.519 110.438 408.75 110.982 408.942C111.186 409.002 111.356 409.062 111.493 409.123C111.635 409.179 111.787 409.26 111.949 409.368C112.115 409.476 112.238 409.612 112.316 409.775C112.394 409.939 112.426 410.127 112.41 410.34C112.382 410.722 112.211 411.016 111.897 411.224C111.583 411.432 111.199 411.52 110.745 411.487C110.341 411.457 109.997 411.344 109.713 411.149C109.434 410.948 109.244 410.692 109.143 410.38L109.8 410.064C109.853 410.271 109.967 410.44 110.144 410.572C110.32 410.703 110.537 410.778 110.795 410.797C111.048 410.815 111.253 410.783 111.411 410.698C111.57 410.614 111.656 410.477 111.67 410.286C111.691 410 111.429 409.772 110.883 409.603C110.701 409.539 110.564 409.489 110.471 409.454C110.378 409.419 110.25 409.359 110.087 409.274C109.929 409.189 109.812 409.104 109.733 409.019C109.655 408.929 109.585 408.814 109.522 408.674C109.465 408.529 109.442 408.372 109.455 408.204C109.481 407.84 109.644 407.55 109.941 407.335C110.244 407.121 110.609 407.029 111.035 407.06C111.377 407.085 111.674 407.186 111.926 407.362C112.184 407.533 112.371 407.761 112.485 408.046L111.846 408.346C111.721 407.976 111.434 407.774 110.985 407.741C110.772 407.726 110.589 407.763 110.436 407.853C110.288 407.944 110.208 408.076 110.196 408.25Z" fill="#212227"/>
<path d="M36.9993 436.842L38.3871 436.944C39.4385 437.021 40.3037 437.402 40.983 438.086C41.663 438.759 41.9625 439.648 41.8817 440.752C41.8008 441.855 41.364 442.695 40.5714 443.272C39.7892 443.849 38.8514 444.097 37.758 444.017C36.8644 443.951 36.1014 443.689 35.4691 443.231C34.8368 442.772 34.4064 442.154 34.178 441.376L35.8051 440.592C36.0368 441.613 36.7309 442.166 37.8874 442.251C38.5077 442.296 39.0134 442.174 39.4045 441.886C39.8068 441.588 40.028 441.165 40.0681 440.619C40.1074 440.083 39.9546 439.643 39.6097 439.301C39.2656 438.948 38.7887 438.749 38.1789 438.705L34.9617 438.469L35.8219 432.57L41.9723 433.021L41.8475 434.724L37.3688 434.396L36.9993 436.842ZM46.7776 437.099L46.9826 437.114C48.1391 437.199 49.049 437.619 49.7123 438.376C50.3869 439.123 50.6834 440.054 50.6018 441.168C50.5209 442.272 50.0916 443.155 49.3138 443.817C48.5375 444.458 47.5764 444.736 46.4304 444.652C45.274 444.567 44.3584 444.151 43.6838 443.404C43.0107 442.636 42.7146 441.7 42.7955 440.597C42.8571 439.755 43.1322 439.03 43.6207 438.421L47.5064 433.426L49.5723 433.578L46.7776 437.099ZM46.5563 442.933C47.1661 442.978 47.679 442.83 48.095 442.491C48.5117 442.141 48.7428 441.656 48.7882 441.035C48.8336 440.415 48.6753 439.907 48.3133 439.51C47.952 439.103 47.4665 438.878 46.8567 438.833C46.2259 438.787 45.7021 438.939 45.2854 439.289C44.88 439.629 44.6545 440.109 44.6091 440.729C44.5636 441.35 44.7163 441.863 45.0671 442.269C45.4291 442.666 45.9255 442.887 46.5563 442.933ZM58.527 437.817C58.4654 438.658 58.1903 439.383 57.7017 439.992L53.8318 444.988L51.7502 444.836L54.5449 441.314L54.3556 441.301C53.2097 441.217 52.2941 440.801 51.609 440.053C50.9352 439.295 50.6391 438.359 50.7207 437.245C50.8023 436.131 51.2313 435.253 52.0075 434.612C52.7951 433.962 53.7618 433.678 54.9078 433.762C56.0643 433.847 56.9742 434.268 57.6375 435.025C58.3121 435.772 58.6086 436.702 58.527 437.817ZM52.5343 437.378C52.4904 437.977 52.6487 438.486 53.0092 438.903C53.381 439.311 53.8718 439.537 54.4815 439.582C55.0913 439.626 55.6042 439.479 56.0201 439.139C56.4369 438.789 56.6679 438.304 56.7134 437.684C56.7588 437.064 56.6005 436.555 56.2385 436.159C55.8772 435.752 55.3917 435.526 54.7819 435.481C54.1721 435.437 53.6536 435.589 53.2264 435.938C52.8104 436.278 52.5797 436.758 52.5343 437.378ZM57.7754 443.374L59.6678 443.513L58.2636 447.532L56.8442 447.428L57.7754 443.374ZM68.1026 446.033L60.8326 445.501L60.9365 444.082L65.0721 440.437C66.0764 439.57 66.6035 438.794 66.6536 438.111C66.6921 437.585 66.5648 437.158 66.2717 436.83C65.9786 436.502 65.5798 436.32 65.0751 436.283C64.1499 436.215 63.4331 436.622 62.9245 437.505L61.4606 436.494C61.8502 435.793 62.3743 435.276 63.0328 434.944C63.6921 434.601 64.4107 434.459 65.1887 434.516C66.1665 434.587 66.9747 434.953 67.6134 435.613C68.2619 436.284 68.548 437.14 68.4718 438.181C68.3901 439.295 67.6768 440.448 66.3317 441.639L63.6575 443.948L68.2309 444.283L68.1026 446.033ZM76.7389 437.121L74.2823 439.922C75.0885 440.172 75.7126 440.598 76.1547 441.201C76.608 441.794 76.805 442.496 76.7457 443.305C76.6648 444.409 76.2281 445.249 75.4354 445.825C74.6533 446.402 73.7155 446.651 72.6221 446.571C71.76 446.507 71.012 446.257 70.3781 445.82C69.7451 445.372 69.3135 444.769 69.0836 444.012L70.6949 443.227C70.9515 444.197 71.637 444.723 72.7515 444.804C73.3823 444.851 73.8932 444.729 74.2843 444.441C74.6761 444.142 74.8921 443.719 74.9321 443.172C74.9722 442.626 74.8198 442.181 74.4749 441.839C74.13 441.497 73.6422 441.302 73.0114 441.256L72.6013 441.226L71.9556 440.085L74.5668 437.121L69.9461 436.782L70.0709 435.079L76.8521 435.576L76.7389 437.121ZM85.3059 445.93C84.4727 446.915 83.3727 447.358 82.006 447.258C80.6497 447.159 79.6207 446.56 78.919 445.462C78.2383 444.366 77.9614 442.95 78.0885 441.216C78.2156 439.481 78.6957 438.121 79.5289 437.136C80.3832 436.152 81.4884 435.709 82.8446 435.809C84.2114 435.909 85.2351 436.507 85.9159 437.603C86.6079 438.69 86.89 440.106 86.7621 441.851C86.6343 443.596 86.1489 444.956 85.3059 445.93ZM82.1354 445.492C82.9554 445.552 83.606 445.256 84.0871 444.604C84.5682 443.952 84.8554 442.99 84.9485 441.718C85.0417 440.446 84.8978 439.453 84.5168 438.738C84.1358 438.023 83.5353 437.635 82.7153 437.575C81.9057 437.516 81.2551 437.812 80.7635 438.463C80.2824 439.114 79.9953 440.076 79.9021 441.349C79.8089 442.621 79.9528 443.614 80.3338 444.329C80.7253 445.045 81.3258 445.432 82.1354 445.492Z" fill="#212227"/>
<path d="M43.4826 470.655L44.7264 470.747L44.6714 471.497L43.4276 471.406L43.3365 472.65L42.5859 472.595L42.677 471.351L41.4332 471.26L41.4882 470.509L42.732 470.6L42.8231 469.357L43.5737 469.412L43.4826 470.655ZM45.3515 469.061L46.7407 468.682L47.4767 468.736L47.0993 473.887L46.253 473.825L46.564 469.579L45.5048 469.797L45.3515 469.061ZM50.961 471.477C51.4459 471.794 51.668 472.229 51.6274 472.784C51.5933 473.25 51.4018 473.608 51.0529 473.859C50.709 474.11 50.2623 474.215 49.7128 474.175C49.1633 474.135 48.734 473.968 48.4251 473.674C48.1161 473.38 47.9791 472.995 48.0139 472.519C48.0333 472.254 48.1172 472.018 48.2655 471.812C48.4141 471.601 48.6135 471.438 48.8636 471.323C48.4947 471.04 48.3275 470.663 48.362 470.192C48.3965 469.721 48.5801 469.369 48.9128 469.137C49.2507 468.9 49.6479 468.799 50.1041 468.832C50.5555 468.865 50.9311 469.023 51.231 469.307C51.5309 469.59 51.6637 469.965 51.6296 470.431C51.5954 470.897 51.3726 471.246 50.961 471.477ZM50.0454 469.634C49.8099 469.617 49.6139 469.667 49.4573 469.783C49.3061 469.896 49.2222 470.065 49.2056 470.29C49.1898 470.506 49.2507 470.686 49.3881 470.829C49.526 470.967 49.7102 471.045 49.9408 471.062C50.1665 471.078 50.3576 471.028 50.5141 470.911C50.6759 470.79 50.7647 470.622 50.7806 470.406C50.7971 470.18 50.7362 470 50.598 469.867C50.4602 469.729 50.276 469.651 50.0454 469.634ZM49.7715 473.373C50.061 473.394 50.2968 473.34 50.4789 473.21C50.666 473.081 50.7687 472.891 50.787 472.641C50.8053 472.39 50.7314 472.188 50.5652 472.032C50.4039 471.878 50.1785 471.79 49.889 471.768C49.5947 471.747 49.354 471.801 49.1669 471.93C48.9848 472.06 48.8845 472.25 48.8662 472.5C48.8479 472.75 48.9194 472.953 49.0807 473.108C49.2469 473.263 49.4772 473.351 49.7715 473.373ZM54.4215 469.489C54.6352 469.736 54.7301 470.024 54.706 470.353C54.6819 470.682 54.5461 470.953 54.2986 471.167C54.0564 471.376 53.7636 471.468 53.4201 471.443C53.0718 471.417 52.793 471.283 52.5839 471.041C52.3702 470.793 52.2754 470.505 52.2994 470.177C52.3232 469.853 52.4588 469.584 52.7062 469.37C52.9537 469.157 53.2492 469.062 53.5926 469.087C53.9361 469.113 54.2124 469.246 54.4215 469.489ZM53.4602 470.794C53.6172 470.806 53.7484 470.766 53.8537 470.675C53.9594 470.579 54.0178 470.455 54.0289 470.303C54.04 470.151 54.0003 470.02 53.9097 469.91C53.8192 469.8 53.6954 469.739 53.5384 469.727C53.3863 469.716 53.2574 469.758 53.1517 469.854C53.0461 469.95 52.9876 470.074 52.9765 470.226C52.9657 470.373 53.0056 470.502 53.0962 470.612C53.1917 470.723 53.313 470.784 53.4602 470.794ZM52.8712 473.785L52.4911 473.52L56.1603 469.993L56.541 470.251L52.8712 473.785ZM55.5568 474.596C55.2085 474.57 54.9297 474.436 54.7206 474.194C54.5069 473.946 54.412 473.658 54.4361 473.33C54.4598 473.006 54.5955 472.737 54.8429 472.523C55.0904 472.31 55.3859 472.215 55.7293 472.241C56.0679 472.265 56.344 472.402 56.5577 472.649C56.7714 472.896 56.8664 473.182 56.8427 473.506C56.8186 473.835 56.6828 474.106 56.4353 474.32C56.1931 474.529 55.9003 474.621 55.5568 474.596ZM55.5969 473.947C55.7539 473.959 55.8851 473.919 55.9904 473.828C56.096 473.732 56.1545 473.608 56.1656 473.456C56.1767 473.304 56.137 473.173 56.0464 473.063C55.9559 472.953 55.8321 472.892 55.6751 472.88C55.523 472.869 55.3941 472.912 55.2884 473.007C55.1827 473.103 55.1243 473.227 55.1132 473.379C55.1024 473.526 55.1423 473.655 55.2329 473.765C55.3284 473.876 55.4497 473.937 55.5969 473.947Z" fill="#23C581"/>
<path d="M37.1733 64.7342L35.4483 62.9964L33.4506 64.497" stroke="#23C581" stroke-width="0.790624" stroke-miterlimit="10" stroke-linecap="round" stroke-linejoin="round"/>
<path d="M35.0667 67.5311L35.4447 63.0416" stroke="#23C581" stroke-width="0.790624" stroke-miterlimit="10" stroke-linecap="round" stroke-linejoin="round"/>
<path d="M63.4241 474.617C63.0194 474.958 62.5496 475.108 62.0148 475.069C61.4702 475.029 61.025 474.812 60.679 474.416C60.3335 474.016 60.1806 473.544 60.2205 472.999C60.2604 472.454 60.4803 472.012 60.8801 471.671C61.2803 471.326 61.7527 471.173 62.2973 471.213C62.837 471.252 63.2796 471.472 63.6252 471.872C63.976 472.268 64.1315 472.738 64.0916 473.283C64.0521 473.822 63.8296 474.267 63.4241 474.617ZM61.0497 474.103C61.3089 474.403 61.6421 474.568 62.0493 474.598C62.4566 474.628 62.8102 474.513 63.1104 474.254C63.4112 473.985 63.5764 473.649 63.6059 473.247C63.6357 472.84 63.521 472.486 63.2619 472.186C63.003 471.881 62.67 471.714 62.2628 471.684C61.8556 471.654 61.5017 471.771 61.2012 472.035C60.9011 472.294 60.7361 472.627 60.7063 473.035C60.6768 473.437 60.7913 473.793 61.0497 474.103ZM66.7678 471.54C67.2093 471.573 67.5501 471.736 67.79 472.029C68.0302 472.318 68.1335 472.693 68.0997 473.155L67.9342 475.414L67.4485 475.378L67.614 473.119C67.6381 472.79 67.5684 472.529 67.4051 472.334C67.2467 472.14 67.008 472.031 66.6891 472.008C66.3211 471.981 66.0208 472.075 65.788 472.29C65.5601 472.505 65.4297 472.838 65.3966 473.289L65.2554 475.218L64.7697 475.182L65.0392 471.502L65.5249 471.538L65.4829 472.112C65.79 471.691 66.2183 471.5 66.7678 471.54ZM72.9331 472.081L72.8986 472.552L71.8388 472.474L71.6755 474.704C71.6607 474.905 71.6894 475.053 71.7614 475.147C71.8338 475.236 71.9483 475.289 72.105 475.305C72.262 475.317 72.4586 475.326 72.6948 475.333L72.6635 475.76C72.1328 475.8 71.7454 475.735 71.5015 475.564C71.2627 475.389 71.1588 475.09 71.1897 474.668L71.3531 472.438L70.5803 472.382L70.6148 471.911L71.3876 471.967L71.4523 471.084L71.9488 470.973L71.8733 472.003L72.9331 472.081ZM75.4712 472.178C75.9127 472.21 76.2535 472.373 76.4934 472.667C76.7337 472.956 76.8369 473.331 76.8031 473.792L76.6376 476.051L76.1519 476.016L76.3174 473.756C76.3415 473.428 76.2718 473.166 76.1085 472.972C75.9501 472.778 75.7114 472.669 75.3925 472.645C75.0245 472.619 74.7242 472.712 74.4914 472.927C74.2635 473.142 74.1331 473.476 74.1 473.927L73.9588 475.855L73.4731 475.82L73.8504 470.668L74.3361 470.704L74.1863 472.749C74.4934 472.328 74.9217 472.137 75.4712 472.178ZM78.5255 471.351C78.5183 471.449 78.4778 471.53 78.4041 471.593C78.3304 471.657 78.2445 471.685 78.1464 471.678C78.0482 471.671 77.9673 471.631 77.9037 471.557C77.84 471.483 77.8118 471.397 77.819 471.299C77.8262 471.201 77.8666 471.12 77.9403 471.056C78.0141 470.993 78.1 470.964 78.1981 470.972C78.2962 470.979 78.3771 471.019 78.4408 471.093C78.5044 471.167 78.5327 471.253 78.5255 471.351ZM78.0625 476.156L77.5768 476.12L77.8463 472.44L78.3321 472.476L78.0625 476.156ZM79.6749 473.544C79.654 473.828 79.8914 474.055 80.3871 474.225C80.5268 474.269 80.6183 474.301 80.6613 474.319C80.7048 474.332 80.7887 474.365 80.913 474.419C81.0426 474.468 81.1308 474.509 81.1777 474.542C81.2295 474.575 81.2997 474.627 81.3883 474.698C81.4772 474.763 81.5389 474.829 81.5735 474.896C81.6084 474.958 81.6395 475.039 81.6666 475.14C81.6942 475.235 81.704 475.337 81.6961 475.445C81.6731 475.759 81.5293 476.005 81.2647 476.183C81.0099 476.362 80.6838 476.437 80.2864 476.407C79.9429 476.382 79.6517 476.284 79.4126 476.114C79.1739 475.939 79.0123 475.72 78.928 475.457L79.3579 475.244C79.4126 475.441 79.5241 475.602 79.6925 475.728C79.8661 475.849 80.0756 475.918 80.3209 475.936C80.5711 475.955 80.7783 475.921 80.9425 475.834C81.1067 475.747 81.196 475.606 81.2103 475.41C81.2312 475.125 80.9938 474.898 80.4981 474.729C80.3584 474.684 80.2668 474.655 80.2233 474.642C80.1803 474.624 80.0939 474.59 79.9643 474.542C79.84 474.488 79.7519 474.445 79.7001 474.411C79.6532 474.378 79.5853 474.329 79.4964 474.263C79.4078 474.192 79.3461 474.126 79.3112 474.065C79.2766 473.998 79.2455 473.917 79.218 473.821C79.1909 473.72 79.1812 473.616 79.1891 473.508C79.2111 473.209 79.3471 472.967 79.5974 472.783C79.8574 472.6 80.1665 472.522 80.5247 472.548C80.8191 472.569 81.0743 472.655 81.2902 472.804C81.5111 472.953 81.6669 473.149 81.7576 473.393L81.3356 473.599C81.2234 473.245 80.9416 473.052 80.4902 473.019C80.2694 473.003 80.0817 473.041 79.9269 473.133C79.7722 473.225 79.6882 473.362 79.6749 473.544ZM87.846 476.243L88.975 473.256L89.4754 473.292L88.0725 476.889L87.5426 476.85L86.8105 473.815L85.6439 476.711L85.114 476.672L84.2502 472.91L84.7507 472.946L85.4321 476.067L86.6199 473.083L87.1057 473.119L87.846 476.243ZM91.7707 473.372C92.3202 473.412 92.7451 473.638 93.0454 474.05C93.3559 474.457 93.492 474.923 93.4535 475.448C93.4517 475.473 93.4412 475.548 93.4221 475.675L90.1913 475.439C90.2134 475.81 90.3488 476.116 90.5976 476.356C90.8464 476.596 91.1694 476.731 91.5669 476.76C92.1262 476.801 92.5364 476.622 92.7975 476.221L93.2061 476.503C93.0247 476.756 92.7862 476.948 92.4905 477.079C92.2001 477.206 91.8782 477.257 91.525 477.231C90.9461 477.188 90.4883 476.972 90.1519 476.583C89.8154 476.193 89.6677 475.718 89.7086 475.159C89.7492 474.605 89.9619 474.159 90.3467 473.822C90.7318 473.481 91.2065 473.33 91.7707 473.372ZM91.7362 473.843C91.3535 473.815 91.0239 473.904 90.7473 474.111C90.4756 474.318 90.3018 474.603 90.2258 474.968L92.9708 475.169C92.9456 474.772 92.8181 474.46 92.5882 474.231C92.3489 473.996 92.0649 473.867 91.7362 473.843ZM96.0685 473.686C96.618 473.727 97.0429 473.953 97.3432 474.364C97.6537 474.772 97.7898 475.238 97.7513 475.763C97.7495 475.788 97.739 475.863 97.7199 475.99L94.4891 475.753C94.5112 476.125 94.6466 476.431 94.8954 476.671C95.1442 476.911 95.4672 477.046 95.8647 477.075C96.424 477.116 96.8342 476.936 97.0953 476.536L97.5039 476.818C97.3225 477.071 97.084 477.263 96.7883 477.394C96.4979 477.521 96.176 477.571 95.8228 477.545C95.2439 477.503 94.7861 477.287 94.4497 476.897C94.1132 476.508 93.9655 476.033 94.0064 475.474C94.047 474.92 94.2597 474.474 94.6445 474.137C95.0296 473.795 95.5043 473.645 96.0685 473.686ZM96.034 474.157C95.6513 474.129 95.3217 474.219 95.0451 474.425C94.7734 474.632 94.5996 474.918 94.5236 475.282L97.2686 475.484C97.2434 475.087 97.1159 474.774 96.886 474.545C96.6467 474.311 96.3627 474.182 96.034 474.157ZM99.5313 475.805L101.363 477.863L100.716 477.815L99.0059 475.907L98.876 477.68L98.3902 477.645L98.7676 472.493L99.2533 472.529L99.0264 475.627L100.897 474.129L101.559 474.177L99.5313 475.805Z" fill="#707B81"/>
</svg>
