<svg width="206" height="500" viewBox="0 0 206 500" fill="none" xmlns="http://www.w3.org/2000/svg">
<rect x="35.9092" y="381.103" width="134.406" height="106.471" rx="10.2781" transform="rotate(5.34287 35.9092 381.103)" fill="white" stroke="#E9EDF7" stroke-width="0.527083"/>
<circle opacity="0.1" cx="56.6028" cy="406.066" r="10.5417" transform="rotate(5.34287 56.6028 406.066)" fill="#AA7AEB"/>
<path d="M57.0934 2.30479C55.7184 2.19293 54.496 3.0744 54.3675 4.27052C54.2413 5.44381 55.1941 6.47921 56.5646 6.63216C56.6071 6.63101 56.6491 6.63443 56.6801 6.64156C56.6906 6.64241 56.6958 6.64284 56.7063 6.64369C56.7116 6.64412 56.7116 6.64412 56.7168 6.64455C58.0647 6.71276 59.2216 5.84899 59.353 4.67613C59.4816 3.48001 58.4683 2.41666 57.0934 2.30479Z" fill="#AA7AEB"/>
<path d="M59.1629 8.06852C57.79 7.10025 55.4022 6.90598 53.8363 7.63516C53.1281 7.96899 52.7043 8.46411 52.6439 9.02565C52.5835 9.58718 52.895 10.1375 53.515 10.5748C54.2035 11.0637 55.1461 11.3568 56.1117 11.4354C57.0773 11.514 58.066 11.378 58.8469 11.0086C59.5498 10.6743 59.9731 10.1838 60.034 9.61767C60.0891 9.05571 59.7829 8.5058 59.1629 8.06852Z" fill="#AA7AEB"/>
<path d="M78.279 410.944L77.3973 410.861L75.8478 404.787L76.6875 404.866L77.9334 409.929L80.0882 405.184L80.9362 405.263L78.279 410.944ZM81.6698 406.255C81.5299 406.242 81.4168 406.183 81.3305 406.079C81.2443 405.975 81.2074 405.856 81.22 405.722C81.2325 405.587 81.2908 405.477 81.3949 405.391C81.4995 405.299 81.6218 405.26 81.7617 405.273C81.896 405.285 82.0061 405.346 82.0918 405.456C82.1781 405.56 82.2149 405.679 82.2024 405.814C82.1898 405.948 82.1315 406.058 82.0274 406.145C81.9234 406.231 81.8042 406.268 81.6698 406.255ZM81.5668 411.251L80.8363 411.183L81.2289 406.985L81.9594 407.053L81.5668 411.251ZM83.5894 408.349C83.5643 408.618 83.8218 408.853 84.3618 409.056C84.5647 409.121 84.7338 409.184 84.869 409.248C85.0104 409.306 85.1606 409.391 85.3196 409.502C85.4843 409.613 85.604 409.751 85.6789 409.916C85.7538 410.082 85.7813 410.271 85.7615 410.483C85.7259 410.864 85.549 411.155 85.2308 411.357C84.9127 411.559 84.5269 411.638 84.0735 411.596C83.6704 411.558 83.3287 411.439 83.0482 411.237C82.7739 411.031 82.5893 410.771 82.4944 410.457L83.1579 410.155C83.2063 410.363 83.3173 410.534 83.491 410.669C83.6648 410.804 83.8804 410.883 84.1379 410.907C84.3898 410.931 84.5957 410.902 84.7558 410.821C84.9158 410.74 85.0047 410.604 85.0225 410.414C85.0492 410.129 84.7915 409.896 84.2494 409.715C84.0694 409.647 83.9331 409.595 83.8405 409.558C83.748 409.521 83.6212 409.459 83.46 409.37C83.3045 409.282 83.1884 409.195 83.1118 409.109C83.0357 409.017 82.9675 408.901 82.9073 408.759C82.8532 408.613 82.834 408.456 82.8497 408.288C82.8838 407.924 83.0517 407.638 83.3536 407.429C83.6611 407.221 84.0275 407.136 84.453 407.176C84.7944 407.208 85.0894 407.315 85.3378 407.496C85.5924 407.672 85.774 407.904 85.8827 408.191L85.2375 408.478C85.1199 408.105 84.8372 407.898 84.3893 407.856C84.1766 407.836 83.9928 407.87 83.8378 407.957C83.6885 408.045 83.6057 408.175 83.5894 408.349ZM87.3113 406.783C87.1714 406.77 87.0583 406.711 86.972 406.607C86.8858 406.503 86.8489 406.384 86.8615 406.249C86.8741 406.115 86.9324 406.005 87.0364 405.918C87.141 405.827 87.2633 405.787 87.4032 405.8C87.5376 405.813 87.6476 405.874 87.7334 405.984C87.8196 406.088 87.8565 406.207 87.8439 406.341C87.8313 406.476 87.773 406.586 87.669 406.672C87.5649 406.758 87.4457 406.795 87.3113 406.783ZM87.2083 411.779L86.4778 411.711L86.8704 407.512L87.6009 407.581L87.2083 411.779ZM90.9993 407.898L90.9333 408.604L89.8166 408.499L89.6038 410.775C89.5844 410.982 89.6097 411.134 89.6797 411.231C89.7558 411.323 89.8776 411.379 90.045 411.401C90.2129 411.416 90.4206 411.43 90.6679 411.442L90.6067 412.097C89.9551 412.121 89.4898 412.023 89.2109 411.805C88.9377 411.588 88.8251 411.221 88.8733 410.706L89.0861 408.431L88.2548 408.353L88.3208 407.648L89.152 407.726L89.2416 406.768L89.9925 406.618L89.8825 407.794L90.9993 407.898ZM94.8512 411.96C94.386 412.346 93.8427 412.51 93.2213 412.451C92.6 412.393 92.0965 412.132 91.7108 411.666C91.3252 411.201 91.1614 410.658 91.2195 410.037C91.2776 409.415 91.5393 408.912 92.0045 408.526C92.4698 408.14 93.013 407.977 93.6344 408.035C94.2557 408.093 94.7592 408.355 95.1449 408.82C95.5356 409.291 95.7022 409.835 95.6446 410.45C95.587 411.066 95.3225 411.569 94.8512 411.96ZM93.2881 411.738C93.7079 411.777 94.0739 411.667 94.3861 411.408C94.6983 411.15 94.8743 410.808 94.9141 410.382C94.9539 409.957 94.8444 409.588 94.5856 409.276C94.3268 408.963 93.9875 408.788 93.5676 408.748C93.1534 408.71 92.7902 408.82 92.478 409.079C92.1658 409.337 91.9898 409.679 91.9501 410.105C91.9103 410.53 92.0198 410.899 92.2786 411.211C92.5373 411.523 92.8739 411.699 93.2881 411.738ZM97.4326 408.5L97.3666 409.205C97.656 408.707 98.117 408.488 98.7496 408.547L98.6781 409.311C98.3214 409.261 98.0046 409.327 97.7278 409.51C97.4509 409.693 97.291 410.014 97.2481 410.473L97.04 412.698L96.3095 412.63L96.7021 408.432L97.4326 408.5ZM99.8252 409.867C99.8001 410.136 100.058 410.372 100.598 410.575C100.801 410.639 100.97 410.703 101.105 410.766C101.246 410.825 101.396 410.909 101.555 411.02C101.72 411.132 101.84 411.27 101.915 411.435C101.99 411.6 102.017 411.789 101.997 412.002C101.962 412.382 101.785 412.673 101.467 412.875C101.148 413.077 100.763 413.157 100.309 413.114C99.9062 413.077 99.5645 412.957 99.284 412.756C99.0097 412.549 98.8251 412.289 98.7302 411.976L99.3937 411.673C99.442 411.881 99.5531 412.053 99.7268 412.187C99.9005 412.322 100.116 412.402 100.374 412.426C100.626 412.449 100.832 412.421 100.992 412.34C101.152 412.259 101.241 412.123 101.258 411.933C101.285 411.647 101.027 411.414 100.485 411.233C100.305 411.166 100.169 411.114 100.076 411.077C99.9838 411.04 99.8569 410.977 99.6958 410.889C99.5403 410.801 99.4242 410.714 99.3476 410.627C99.2714 410.535 99.2033 410.419 99.1431 410.278C99.089 410.132 99.0698 409.975 99.0855 409.807C99.1195 409.443 99.2875 409.156 99.5894 408.947C99.8968 408.739 100.263 408.655 100.689 408.694C101.03 408.726 101.325 408.833 101.574 409.014C101.828 409.191 102.01 409.422 102.118 409.709L101.473 409.996C101.356 409.624 101.073 409.417 100.625 409.375C100.412 409.355 100.229 409.388 100.074 409.476C99.9242 409.563 99.8414 409.694 99.8252 409.867Z" fill="#212227"/>
<path d="M50.7147 436.649L48.2023 439.4C49.0033 439.665 49.6187 440.104 50.0485 440.716C50.4898 441.318 50.6727 442.024 50.5971 442.832C50.494 443.934 50.0404 444.765 49.2363 445.325C48.4427 445.886 47.5001 446.116 46.4086 446.014C45.5479 445.933 44.8051 445.668 44.1802 445.217C43.5563 444.757 43.137 444.146 42.9223 443.385L44.5491 442.632C44.7861 443.607 45.4609 444.146 46.5735 444.25C47.2032 444.309 47.7165 444.198 48.1133 443.918C48.5111 443.627 48.7355 443.208 48.7865 442.663C48.8376 442.117 48.6942 441.669 48.3563 441.32C48.0183 440.971 47.5345 440.767 46.9048 440.708L46.4954 440.67L45.8728 439.516L48.5431 436.605L43.9302 436.173L44.0892 434.473L50.859 435.106L50.7147 436.649ZM54.2689 439.618L55.6543 439.747C56.7039 439.846 57.5614 440.243 58.2267 440.941C58.893 441.628 59.1746 442.522 59.0715 443.624C58.9685 444.727 58.5149 445.558 57.7108 446.118C56.9172 446.679 55.9746 446.908 54.883 446.806C53.9909 446.723 53.2333 446.445 52.6104 445.974C51.9874 445.503 51.5696 444.876 51.3569 444.094L52.9994 443.342C53.2106 444.368 53.8934 444.935 55.0479 445.043C55.6672 445.101 56.1752 444.989 56.572 444.709C56.9803 444.419 57.21 444.001 57.261 443.455C57.3111 442.92 57.1671 442.478 56.8292 442.128C56.4923 441.769 56.0195 441.56 55.4107 441.503L52.199 441.203L53.1777 435.323L59.3178 435.897L59.1587 437.598L54.6875 437.179L54.2689 439.618ZM67.2821 446.393C66.4292 447.362 65.3206 447.782 63.9561 447.655C62.6021 447.528 61.5854 446.909 60.9059 445.797C60.2474 444.687 59.9991 443.267 60.1611 441.535C60.323 439.803 60.8304 438.453 61.6833 437.484C62.5572 436.518 63.6711 436.098 65.0251 436.225C66.3895 436.352 67.401 436.971 68.0595 438.081C68.7295 439.181 68.9831 440.602 68.8201 442.345C68.6572 444.087 68.1445 445.436 67.2821 446.393ZM64.121 445.891C64.9397 445.968 65.5961 445.685 66.0902 445.043C66.5844 444.401 66.8908 443.445 67.0096 442.175C67.1284 440.905 67.0045 439.909 66.638 439.186C66.2714 438.464 65.6788 438.064 64.8602 437.988C64.052 437.912 63.3956 438.195 62.8909 438.836C62.3968 439.478 62.0904 440.434 61.9716 441.704C61.8528 442.974 61.9767 443.97 62.3432 444.693C62.7202 445.416 63.3128 445.816 64.121 445.891ZM70.0969 446.117L71.9862 446.293L70.5013 450.284L69.0844 450.151L70.0969 446.117ZM73.7275 438.992L73.8895 437.26L80.8955 437.915L80.7482 439.49L75.9918 448.574L74.0868 448.396L78.7655 439.463L73.7275 438.992ZM86.4124 445.848L87.6719 445.966L87.5143 447.65L86.2548 447.532L86.0693 449.516L84.243 449.345L84.4285 447.362L79.0127 446.855L79.1702 445.171L83.6521 438.173L85.6201 438.357L81.1382 445.355L84.5861 445.677L84.8541 442.812L86.6803 442.983L86.4124 445.848ZM91.1837 443.07L92.5692 443.2C93.6188 443.298 94.4762 443.696 95.1416 444.393C95.8079 445.08 96.0895 445.975 95.9864 447.077C95.8833 448.179 95.4298 449.01 94.6257 449.57C93.832 450.131 92.8895 450.36 91.7979 450.258C90.9057 450.175 90.1482 449.898 89.5252 449.426C88.9023 448.955 88.4844 448.329 88.2717 447.546L89.9143 446.795C90.1254 447.82 90.8083 448.387 91.9628 448.495C92.5821 448.553 93.0901 448.442 93.4869 448.161C93.8952 447.871 94.1248 447.453 94.1759 446.907C94.2259 446.372 94.082 445.93 93.7441 445.581C93.4072 445.221 92.9343 445.013 92.3256 444.956L89.1138 444.655L90.0925 438.775L96.2326 439.35L96.0736 441.05L91.6024 440.632L91.1837 443.07Z" fill="#212227"/>
<path d="M45.2871 65.5488L43.2551 67.0142L41.5707 65.2465" stroke="#E74545" stroke-width="0.790624" stroke-miterlimit="10" stroke-linecap="round" stroke-linejoin="round"/>
<path d="M43.7417 62.4874L43.2599 66.9694" stroke="#E74545" stroke-width="0.790624" stroke-miterlimit="10" stroke-linecap="round" stroke-linejoin="round"/>
<path d="M52.4567 473.947L49.7383 473.693L49.8098 472.928L52.5282 473.183L52.4567 473.947ZM56.4109 476.184L53.0239 475.867L53.0858 475.206L55.0496 473.544C55.5263 473.149 55.7795 472.793 55.8093 472.474C55.8322 472.229 55.7768 472.029 55.6431 471.873C55.5095 471.717 55.3251 471.628 55.09 471.606C54.659 471.566 54.3207 471.749 54.0751 472.156L53.4016 471.671C53.5899 471.348 53.8393 471.112 54.1497 470.963C54.4605 470.809 54.7971 470.749 55.1596 470.783C55.6151 470.826 55.9888 471.004 56.2806 471.318C56.5768 471.637 56.7023 472.039 56.6569 472.524C56.6084 473.043 56.2647 473.574 55.626 474.117L54.3566 475.169L56.4872 475.369L56.4109 476.184ZM59.4961 471.529C59.7047 471.781 59.7937 472.071 59.7631 472.399C59.7324 472.727 59.5911 472.996 59.3394 473.205C59.093 473.409 58.7984 473.495 58.4555 473.463C58.1078 473.43 57.8318 473.291 57.6275 473.044C57.4189 472.793 57.3299 472.503 57.3605 472.175C57.3908 471.851 57.5318 471.585 57.7835 471.377C58.0352 471.168 58.3325 471.08 58.6754 471.112C59.0183 471.144 59.2918 471.283 59.4961 471.529ZM58.5087 472.816C58.6654 472.83 58.7973 472.793 58.9044 472.704C59.012 472.611 59.0729 472.488 59.0871 472.336C59.1013 472.184 59.0642 472.052 58.9759 471.94C58.8876 471.828 58.765 471.765 58.6083 471.75C58.4564 471.736 58.3267 471.776 58.2192 471.869C58.1116 471.963 58.0507 472.086 58.0365 472.238C58.0227 472.385 58.06 472.514 58.1484 472.626C58.2416 472.739 58.3617 472.802 58.5087 472.816ZM57.8596 475.794L57.4848 475.521L61.2243 472.069L61.5998 472.334L57.8596 475.794ZM60.5283 476.658C60.1806 476.626 59.9046 476.486 59.7003 476.24C59.4916 475.988 59.4026 475.698 59.4333 475.37C59.4636 475.047 59.6046 474.781 59.8563 474.572C60.108 474.363 60.4053 474.275 60.7482 474.307C61.0862 474.339 61.3595 474.48 61.5682 474.732C61.7769 474.984 61.8661 475.271 61.8358 475.595C61.8052 475.923 61.6639 476.191 61.4122 476.4C61.1658 476.604 60.8712 476.69 60.5283 476.658ZM60.5814 476.011C60.7382 476.026 60.8701 475.989 60.9772 475.9C61.0848 475.806 61.1457 475.683 61.1599 475.531C61.1741 475.38 61.137 475.248 61.0487 475.136C60.9604 475.024 60.8378 474.96 60.6811 474.946C60.5292 474.931 60.3995 474.971 60.2919 475.065C60.1844 475.159 60.1235 475.281 60.1093 475.433C60.0955 475.58 60.1328 475.71 60.2212 475.822C60.3144 475.934 60.4345 475.997 60.5814 476.011Z" fill="#E74545"/>
<path d="M68.9552 476.89C68.5437 477.222 68.071 477.363 67.5372 477.313C66.9935 477.263 66.5527 477.036 66.2148 476.634C65.8773 476.227 65.734 475.751 65.7849 475.208C65.8357 474.664 66.0645 474.226 66.4711 473.893C66.8781 473.556 67.3535 473.413 67.8972 473.464C68.436 473.514 68.8741 473.743 69.2115 474.15C69.5543 474.552 69.7003 475.026 69.6495 475.569C69.5991 476.108 69.3677 476.548 68.9552 476.89ZM66.5917 476.328C66.8448 476.634 67.1746 476.805 67.5811 476.843C67.9877 476.881 68.3436 476.774 68.6489 476.521C68.9551 476.258 69.127 475.926 69.1646 475.524C69.2026 475.117 69.095 474.761 68.842 474.456C68.5893 474.146 68.2598 473.972 67.8532 473.934C67.4467 473.896 67.0905 474.006 66.7848 474.264C66.4795 474.517 66.3078 474.847 66.2698 475.253C66.2322 475.655 66.3395 476.013 66.5917 476.328ZM72.3602 473.881C72.801 473.922 73.1384 474.092 73.3723 474.391C73.6067 474.684 73.7024 475.061 73.6593 475.522L73.4484 477.777L72.9635 477.732L73.1744 475.476C73.2051 475.148 73.1408 474.885 72.9814 474.688C72.8269 474.49 72.5905 474.377 72.2721 474.347C71.9047 474.313 71.6025 474.401 71.3655 474.611C71.1334 474.821 70.9962 475.152 70.9541 475.602L70.774 477.527L70.2891 477.482L70.6327 473.808L71.1176 473.854L71.064 474.427C71.3795 474.012 71.8116 473.83 72.3602 473.881ZM78.5133 474.545L78.4693 475.016L77.4114 474.917L77.2032 477.143C77.1844 477.344 77.2101 477.492 77.2802 477.587C77.3508 477.678 77.4642 477.733 77.6205 477.752C77.7772 477.767 77.9736 477.781 78.2096 477.793L78.1698 478.219C77.6383 478.248 77.2524 478.175 77.0119 477.999C76.7767 477.819 76.6789 477.519 76.7183 477.097L76.9265 474.871L76.155 474.799L76.199 474.329L76.9704 474.401L77.0529 473.519L77.5515 473.418L77.4553 474.446L78.5133 474.545ZM81.049 474.694C81.4898 474.735 81.8272 474.905 82.0611 475.203C82.2955 475.497 82.3912 475.874 82.3481 476.334L82.1372 478.59L81.6523 478.545L81.8632 476.289C81.8939 475.961 81.8296 475.698 81.6702 475.5C81.5157 475.303 81.2793 475.189 80.9609 475.16C80.5936 475.125 80.2914 475.213 80.0543 475.423C79.8222 475.634 79.685 475.964 79.6429 476.415L79.4629 478.34L78.9779 478.294L79.4589 473.152L79.9438 473.197L79.7528 475.239C80.0683 474.824 80.5004 474.642 81.049 474.694ZM84.1193 473.928C84.1101 474.026 84.0681 474.106 83.9931 474.168C83.9181 474.231 83.8316 474.257 83.7337 474.248C83.6357 474.239 83.5556 474.197 83.4935 474.122C83.4313 474.047 83.4048 473.96 83.414 473.862C83.4231 473.764 83.4652 473.684 83.5402 473.622C83.6152 473.56 83.7017 473.533 83.7996 473.543C83.8976 473.552 83.9776 473.594 84.0398 473.669C84.102 473.744 84.1285 473.83 84.1193 473.928ZM83.5597 478.723L83.0748 478.678L83.4184 475.004L83.9033 475.049L83.5597 478.723ZM85.2243 476.144C85.1977 476.428 85.4305 476.66 85.9227 476.839C86.0615 476.887 86.1523 476.92 86.195 476.939C86.2381 476.953 86.3213 476.988 86.4446 477.044C86.5732 477.095 86.6606 477.138 86.7068 477.172C86.7579 477.206 86.827 477.26 86.9142 477.332C87.0017 477.4 87.0621 477.467 87.0953 477.534C87.129 477.597 87.1584 477.679 87.1836 477.78C87.2091 477.876 87.2169 477.978 87.2068 478.086C87.1775 478.399 87.0288 478.642 86.7607 478.815C86.5023 478.988 86.1748 479.056 85.7781 479.019C85.4352 478.987 85.146 478.884 84.9104 478.708C84.6752 478.528 84.5181 478.306 84.4391 478.042L84.8732 477.838C84.9239 478.035 85.0322 478.199 85.1979 478.328C85.3691 478.452 85.5771 478.526 85.822 478.549C86.0718 478.573 86.2797 478.543 86.4456 478.459C86.6115 478.376 86.7036 478.236 86.7219 478.04C86.7485 477.756 86.5157 477.525 86.0236 477.345C85.8847 477.298 85.7937 477.267 85.7506 477.253C85.7079 477.234 85.6222 477.199 85.4936 477.147C85.3704 477.091 85.2832 477.046 85.2321 477.012C85.1859 476.978 85.119 476.927 85.0314 476.86C84.9443 476.787 84.8839 476.72 84.8502 476.657C84.817 476.59 84.7876 476.508 84.762 476.412C84.7369 476.311 84.7293 476.206 84.7394 476.099C84.7673 475.8 84.9083 475.561 85.1622 475.382C85.4258 475.204 85.7365 475.132 86.094 475.165C86.3879 475.193 86.6413 475.283 86.8543 475.437C87.0721 475.59 87.2239 475.79 87.3097 476.035L86.8836 476.232C86.7785 475.877 86.5007 475.678 86.05 475.636C85.8296 475.615 85.6411 475.649 85.4846 475.738C85.328 475.827 85.2413 475.963 85.2243 476.144ZM93.3395 479.008L94.5283 476.043L95.0279 476.09L93.5529 479.658L93.0239 479.608L92.3531 476.559L91.1284 479.431L90.5994 479.381L89.8115 475.602L90.3111 475.649L90.9296 478.782L92.1773 475.823L92.6622 475.869L93.3395 479.008ZM97.3211 476.215C97.8697 476.267 98.29 476.501 98.582 476.919C98.8842 477.332 99.0108 477.801 98.9618 478.325C98.9595 478.35 98.9475 478.425 98.9258 478.552L95.7004 478.25C95.7151 478.622 95.8443 478.931 96.0882 479.176C96.3321 479.421 96.6524 479.562 97.0491 479.599C97.6075 479.651 98.0213 479.48 98.2904 479.085L98.6932 479.375C98.5068 479.624 98.2645 479.812 97.9662 479.937C97.6733 480.058 97.3505 480.102 96.9978 480.069C96.4199 480.015 95.9666 479.789 95.638 479.393C95.3095 478.997 95.1713 478.519 95.2235 477.961C95.2753 477.407 95.4969 476.966 95.8883 476.637C96.2803 476.303 96.7579 476.163 97.3211 476.215ZM97.2772 476.686C96.8951 476.65 96.5638 476.732 96.2831 476.934C96.0073 477.135 95.8278 477.417 95.7444 477.78L98.4849 478.036C98.4677 477.639 98.3464 477.324 98.1212 477.091C97.8867 476.851 97.6053 476.716 97.2772 476.686ZM101.612 476.617C102.16 476.668 102.581 476.902 102.873 477.32C103.175 477.734 103.301 478.203 103.252 478.727C103.25 478.751 103.238 478.827 103.216 478.953L99.991 478.651C100.006 479.023 100.135 479.332 100.379 479.577C100.623 479.822 100.943 479.963 101.34 480C101.898 480.053 102.312 479.881 102.581 479.487L102.984 479.776C102.797 480.026 102.555 480.213 102.257 480.338C101.964 480.459 101.641 480.503 101.288 480.47C100.71 480.416 100.257 480.191 99.9286 479.794C99.6001 479.398 99.4619 478.921 99.5141 478.362C99.5659 477.809 99.7875 477.367 100.179 477.038C100.571 476.705 101.048 476.564 101.612 476.617ZM101.568 477.087C101.186 477.051 100.854 477.134 100.574 477.335C100.298 477.536 100.118 477.818 100.035 478.181L102.775 478.437C102.758 478.041 102.637 477.725 102.412 477.492C102.177 477.253 101.896 477.118 101.568 477.087ZM105.031 478.804L106.822 480.898L106.175 480.838L104.504 478.896L104.338 480.666L103.853 480.621L104.334 475.478L104.819 475.523L104.53 478.616L106.43 477.156L107.092 477.218L105.031 478.804Z" fill="#707B81"/>
</svg>
