<svg width="6" height="7" viewBox="0 0 6 7" fill="none" xmlns="http://www.w3.org/2000/svg">
<g clip-path="url(#clip0_312_1097)">
<path d="M3.15671 1.67381C3.22638 1.60416 3.32086 1.56503 3.41938 1.56503C3.51789 1.56503 3.61237 1.60416 3.68204 1.67381L5.35387 3.34564C5.42352 3.41531 5.46265 3.50979 5.46265 3.6083C5.46265 3.70682 5.42352 3.8013 5.35387 3.87097L3.68204 5.5428C3.61197 5.61047 3.51812 5.64792 3.42071 5.64707C3.3233 5.64622 3.23012 5.60715 3.16124 5.53827C3.09236 5.46939 3.05328 5.37621 3.05244 5.2788C3.05159 5.18138 3.08904 5.08754 3.15671 5.01747L4.16241 3.97982H0.632992C0.53446 3.97982 0.439963 3.94068 0.37029 3.871C0.300617 3.80133 0.261475 3.70683 0.261475 3.6083C0.261475 3.50977 0.300617 3.41527 0.37029 3.3456C0.439963 3.27593 0.53446 3.23678 0.632992 3.23678H4.16241L3.15671 2.19913C3.08706 2.12946 3.04794 2.03498 3.04794 1.93647C3.04794 1.83796 3.08706 1.74348 3.15671 1.67381Z" fill="white"/>
</g>
<defs>
<clipPath id="clip0_312_1097">
<rect width="5.57277" height="5.57277" fill="white" transform="translate(0.0758667 0.822327)"/>
</clipPath>
</defs>
</svg>
